<svg id="mermaid-svg" width="100%" xmlns="http://www.w3.org/2000/svg" class="flowchart" style="max-width: 2272.09px; background-color: rgb(255, 255, 255);" viewBox="0 0 2272.08984375 2022" role="graphics-document document" aria-roledescription="flowchart-v2" xmlns:xlink="http://www.w3.org/1999/xlink"><style xmlns="http://www.w3.org/1999/xhtml">@import url("https://cdnjs.cloudflare.com/ajax/libs/font-awesome/6.7.2/css/all.min.css");</style><style>#mermaid-svg{font-family:"trebuchet ms",verdana,arial,sans-serif;font-size:16px;fill:#333;}@keyframes edge-animation-frame{from{stroke-dashoffset:0;}}@keyframes dash{to{stroke-dashoffset:0;}}#mermaid-svg .edge-animation-slow{stroke-dasharray:9,5!important;stroke-dashoffset:900;animation:dash 50s linear infinite;stroke-linecap:round;}#mermaid-svg .edge-animation-fast{stroke-dasharray:9,5!important;stroke-dashoffset:900;animation:dash 20s linear infinite;stroke-linecap:round;}#mermaid-svg .error-icon{fill:#552222;}#mermaid-svg .error-text{fill:#552222;stroke:#552222;}#mermaid-svg .edge-thickness-normal{stroke-width:1px;}#mermaid-svg .edge-thickness-thick{stroke-width:3.5px;}#mermaid-svg .edge-pattern-solid{stroke-dasharray:0;}#mermaid-svg .edge-thickness-invisible{stroke-width:0;fill:none;}#mermaid-svg .edge-pattern-dashed{stroke-dasharray:3;}#mermaid-svg .edge-pattern-dotted{stroke-dasharray:2;}#mermaid-svg .marker{fill:#333333;stroke:#333333;}#mermaid-svg .marker.cross{stroke:#333333;}#mermaid-svg svg{font-family:"trebuchet ms",verdana,arial,sans-serif;font-size:16px;}#mermaid-svg p{margin:0;}#mermaid-svg .label{font-family:"trebuchet ms",verdana,arial,sans-serif;color:#333;}#mermaid-svg .cluster-label text{fill:#333;}#mermaid-svg .cluster-label span{color:#333;}#mermaid-svg .cluster-label span p{background-color:transparent;}#mermaid-svg .label text,#mermaid-svg span{fill:#333;color:#333;}#mermaid-svg .node rect,#mermaid-svg .node circle,#mermaid-svg .node ellipse,#mermaid-svg .node polygon,#mermaid-svg .node path{fill:#ECECFF;stroke:#9370DB;stroke-width:1px;}#mermaid-svg .rough-node .label text,#mermaid-svg .node .label text,#mermaid-svg .image-shape .label,#mermaid-svg .icon-shape .label{text-anchor:middle;}#mermaid-svg .node .katex path{fill:#000;stroke:#000;stroke-width:1px;}#mermaid-svg .rough-node .label,#mermaid-svg .node .label,#mermaid-svg .image-shape .label,#mermaid-svg .icon-shape .label{text-align:center;}#mermaid-svg .node.clickable{cursor:pointer;}#mermaid-svg .root .anchor path{fill:#333333!important;stroke-width:0;stroke:#333333;}#mermaid-svg .arrowheadPath{fill:#333333;}#mermaid-svg .edgePath .path{stroke:#333333;stroke-width:2.0px;}#mermaid-svg .flowchart-link{stroke:#333333;fill:none;}#mermaid-svg .edgeLabel{background-color:rgba(232,232,232, 0.8);text-align:center;}#mermaid-svg .edgeLabel p{background-color:rgba(232,232,232, 0.8);}#mermaid-svg .edgeLabel rect{opacity:0.5;background-color:rgba(232,232,232, 0.8);fill:rgba(232,232,232, 0.8);}#mermaid-svg .labelBkg{background-color:rgba(232, 232, 232, 0.5);}#mermaid-svg .cluster rect{fill:#ffffde;stroke:#aaaa33;stroke-width:1px;}#mermaid-svg .cluster text{fill:#333;}#mermaid-svg .cluster span{color:#333;}#mermaid-svg div.mermaidTooltip{position:absolute;text-align:center;max-width:200px;padding:2px;font-family:"trebuchet ms",verdana,arial,sans-serif;font-size:12px;background:hsl(80, 100%, 96.2745098039%);border:1px solid #aaaa33;border-radius:2px;pointer-events:none;z-index:100;}#mermaid-svg .flowchartTitleText{text-anchor:middle;font-size:18px;fill:#333;}#mermaid-svg rect.text{fill:none;stroke-width:0;}#mermaid-svg .icon-shape,#mermaid-svg .image-shape{background-color:rgba(232,232,232, 0.8);text-align:center;}#mermaid-svg .icon-shape p,#mermaid-svg .image-shape p{background-color:rgba(232,232,232, 0.8);padding:2px;}#mermaid-svg .icon-shape rect,#mermaid-svg .image-shape rect{opacity:0.5;background-color:rgba(232,232,232, 0.8);fill:rgba(232,232,232, 0.8);}#mermaid-svg .label-icon{display:inline-block;height:1em;overflow:visible;vertical-align:-0.125em;}#mermaid-svg .node .label-icon path{fill:currentColor;stroke:revert;stroke-width:revert;}#mermaid-svg :root{--mermaid-font-family:"trebuchet ms",verdana,arial,sans-serif;}</style><g><marker id="mermaid-svg_flowchart-v2-pointEnd" class="marker flowchart-v2" viewBox="0 0 10 10" refX="5" refY="5" markerUnits="userSpaceOnUse" markerWidth="8" markerHeight="8" orient="auto"><path d="M 0 0 L 10 5 L 0 10 z" class="arrowMarkerPath" style="stroke-width: 1; stroke-dasharray: 1, 0;"/></marker><marker id="mermaid-svg_flowchart-v2-pointStart" class="marker flowchart-v2" viewBox="0 0 10 10" refX="4.5" refY="5" markerUnits="userSpaceOnUse" markerWidth="8" markerHeight="8" orient="auto"><path d="M 0 5 L 10 10 L 10 0 z" class="arrowMarkerPath" style="stroke-width: 1; stroke-dasharray: 1, 0;"/></marker><marker id="mermaid-svg_flowchart-v2-circleEnd" class="marker flowchart-v2" viewBox="0 0 10 10" refX="11" refY="5" markerUnits="userSpaceOnUse" markerWidth="11" markerHeight="11" orient="auto"><circle cx="5" cy="5" r="5" class="arrowMarkerPath" style="stroke-width: 1; stroke-dasharray: 1, 0;"/></marker><marker id="mermaid-svg_flowchart-v2-circleStart" class="marker flowchart-v2" viewBox="0 0 10 10" refX="-1" refY="5" markerUnits="userSpaceOnUse" markerWidth="11" markerHeight="11" orient="auto"><circle cx="5" cy="5" r="5" class="arrowMarkerPath" style="stroke-width: 1; stroke-dasharray: 1, 0;"/></marker><marker id="mermaid-svg_flowchart-v2-crossEnd" class="marker cross flowchart-v2" viewBox="0 0 11 11" refX="12" refY="5.2" markerUnits="userSpaceOnUse" markerWidth="11" markerHeight="11" orient="auto"><path d="M 1,1 l 9,9 M 10,1 l -9,9" class="arrowMarkerPath" style="stroke-width: 2; stroke-dasharray: 1, 0;"/></marker><marker id="mermaid-svg_flowchart-v2-crossStart" class="marker cross flowchart-v2" viewBox="0 0 11 11" refX="-1" refY="5.2" markerUnits="userSpaceOnUse" markerWidth="11" markerHeight="11" orient="auto"><path d="M 1,1 l 9,9 M 10,1 l -9,9" class="arrowMarkerPath" style="stroke-width: 2; stroke-dasharray: 1, 0;"/></marker><g class="root"><g class="clusters"><g class="cluster " id="ALERT" data-look="classic"><rect style="" x="137.28125" y="1454" width="2126.80859375" height="432"/><g class="cluster-label " transform="translate(1100.685546875, 1454)"><foreignObject width="200" height="48"><div xmlns="http://www.w3.org/1999/xhtml" style="display: table; white-space: break-spaces; line-height: 1.5; max-width: 200px; text-align: center; width: 200px;"><span class="nodeLabel "><p>Interpretation &amp; Alerting — Layers 3-4</p></span></div></foreignObject></g></g><g class="cluster " id="STAT" data-look="classic"><rect style="" x="8" y="363" width="885.609375" height="1041"/><g class="cluster-label " transform="translate(350.8046875, 363)"><foreignObject width="200" height="72"><div xmlns="http://www.w3.org/1999/xhtml" style="display: table; white-space: break-spaces; line-height: 1.5; max-width: 200px; text-align: center; width: 200px;"><span class="nodeLabel "><p>Statistical Detection — Layers 1-2 (18 transaction types)</p></span></div></foreignObject></g></g><g class="cluster " id="SRC" data-look="classic"><rect style="" x="913.609375" y="210" width="1261.05859375" height="761"/><g class="cluster-label " transform="translate(1446.302734375, 210)"><foreignObject width="195.671875" height="24"><div xmlns="http://www.w3.org/1999/xhtml" style="display: table-cell; white-space: nowrap; line-height: 1.5; max-width: 200px; text-align: center;"><span class="nodeLabel "><p>Data &amp; Knowledge Sources</p></span></div></foreignObject></g></g><g class="cluster " id="ORCH" data-look="classic"><rect style="" x="127.05078125" y="8" width="1552.89453125" height="152"/><g class="cluster-label " transform="translate(855.474609375, 8)"><foreignObject width="96.046875" height="24"><div xmlns="http://www.w3.org/1999/xhtml" style="display: table-cell; white-space: nowrap; line-height: 1.5; max-width: 200px; text-align: center;"><span class="nodeLabel "><p>Orchestration</p></span></div></foreignObject></g></g></g><g class="edgePaths"><path d="M358.617,118.103L335.629,125.086C312.641,132.069,266.664,146.034,243.676,157.184C220.688,168.333,220.688,176.667,220.688,185C220.688,193.333,220.688,201.667,220.688,216.5C220.688,231.333,220.688,252.667,220.688,274C220.688,295.333,220.688,316.667,220.688,331.5C220.688,346.333,220.688,354.667,244.021,364.834C267.355,375.001,314.022,387.003,337.356,393.003L360.69,399.004" id="L_P1_DE_0" class=" edge-thickness-normal edge-pattern-solid edge-thickness-normal edge-pattern-solid flowchart-link" style=";" data-edge="true" data-et="edge" data-id="L_P1_DE_0" data-points="W3sieCI6MzU4LjYxNzE4NzUsInkiOjExOC4xMDM0MTU5NzQ1MjA3fSx7IngiOjIyMC42ODc1LCJ5IjoxNjB9LHsieCI6MjIwLjY4NzUsInkiOjE4NX0seyJ4IjoyMjAuNjg3NSwieSI6MjEwfSx7IngiOjIyMC42ODc1LCJ5IjoyNzR9LHsieCI6MjIwLjY4NzUsInkiOjMzOH0seyJ4IjoyMjAuNjg3NSwieSI6MzYzfSx7IngiOjM2NC41NjM4NDI3NzM0Mzc1LCJ5Ijo0MDB9XQ==" marker-end="url(#mermaid-svg_flowchart-v2-pointEnd)"/><path d="M689.055,112.269L652.471,120.224C615.888,128.179,542.721,144.09,506.138,156.211C469.555,168.333,469.555,176.667,469.555,185C469.555,193.333,469.555,201.667,469.555,216.5C469.555,231.333,469.555,252.667,469.555,274C469.555,295.333,469.555,316.667,469.555,331.5C469.555,346.333,469.555,354.667,469.555,364.333C469.555,374,469.555,385,469.555,390.5L469.555,396" id="L_FAM_DE_0" class=" edge-thickness-normal edge-pattern-solid edge-thickness-normal edge-pattern-solid flowchart-link" style=";" data-edge="true" data-et="edge" data-id="L_FAM_DE_0" data-points="W3sieCI6Njg5LjA1NDY4NzUsInkiOjExMi4yNjg5NTU2NTA5Mjk5fSx7IngiOjQ2OS41NTQ2ODc1LCJ5IjoxNjB9LHsieCI6NDY5LjU1NDY4NzUsInkiOjE4NX0seyJ4Ijo0NjkuNTU0Njg3NSwieSI6MjEwfSx7IngiOjQ2OS41NTQ2ODc1LCJ5IjoyNzR9LHsieCI6NDY5LjU1NDY4NzUsInkiOjMzOH0seyJ4Ijo0NjkuNTU0Njg3NSwieSI6MzYzfSx7IngiOjQ2OS41NTQ2ODc1LCJ5Ijo0MDB9XQ==" marker-end="url(#mermaid-svg_flowchart-v2-pointEnd)"/><path d="M1401.098,287.97L1333.826,296.309C1266.553,304.647,1132.009,321.323,1064.737,333.828C997.465,346.333,997.465,354.667,928.039,367.25C858.613,379.833,719.761,396.667,650.334,405.084L580.908,413.5" id="L_QBO_DE_0" class=" edge-thickness-normal edge-pattern-solid edge-thickness-normal edge-pattern-solid flowchart-link" style=";" data-edge="true" data-et="edge" data-id="L_QBO_DE_0" data-points="W3sieCI6MTQwMS4wOTc2NTYyNSwieSI6Mjg3Ljk3MDM0NDM2ODQ1NjF9LHsieCI6OTk3LjQ2NDg0Mzc1LCJ5IjozMzh9LHsieCI6OTk3LjQ2NDg0Mzc1LCJ5IjozNjN9LHsieCI6NTc2LjkzNzUsInkiOjQxMy45ODE2ODYzMzY4OTc0fV0=" marker-end="url(#mermaid-svg_flowchart-v2-pointEnd)"/><path d="M512.243,454L525.155,462.167C538.067,470.333,563.891,486.667,702.056,505.846C840.221,525.026,1090.728,547.052,1215.981,558.065L1341.234,569.078" id="L_DE_TTL_0" class=" edge-thickness-normal edge-pattern-solid edge-thickness-normal edge-pattern-solid flowchart-link" style=";" data-edge="true" data-et="edge" data-id="L_DE_TTL_0" data-points="W3sieCI6NTEyLjI0MzE2NDA2MjUsInkiOjQ1NH0seyJ4Ijo1ODkuNzE0ODQzNzUsInkiOjUwM30seyJ4IjoxMzQ1LjIxODc1LCJ5Ijo1NjkuNDI4NDMxMzMyNjczNX1d" marker-end="url(#mermaid-svg_flowchart-v2-pointEnd)"/><path d="M1345.219,605.267L1319.156,611.556C1293.094,617.845,1240.969,630.422,1151.022,646.098C1061.076,661.773,933.308,680.545,869.424,689.932L805.54,699.318" id="L_TTL_CPI_0" class=" edge-thickness-normal edge-pattern-solid edge-thickness-normal edge-pattern-solid flowchart-link" style=";" data-edge="true" data-et="edge" data-id="L_TTL_CPI_0" data-points="W3sieCI6MTM0NS4yMTg3NSwieSI6NjA1LjI2NzMzNDMxNTE2OTR9LHsieCI6MTE4OC44NDM3NSwieSI6NjQzfSx7IngiOjgwMS41ODIwMzEyNSwieSI6Njk5Ljg5OTQxNzc1NzI3MDV9XQ==" marker-end="url(#mermaid-svg_flowchart-v2-pointEnd)"/><path d="M742.773,466L742.773,472.167C742.773,478.333,742.773,490.667,842.518,507.491C942.263,524.315,1141.752,545.629,1241.497,556.287L1341.241,566.944" id="L_INJ_TTL_0" class=" edge-thickness-normal edge-pattern-dotted edge-thickness-normal edge-pattern-solid flowchart-link" style=";" data-edge="true" data-et="edge" data-id="L_INJ_TTL_0" data-points="W3sieCI6NzQyLjc3MzQzNzUsInkiOjQ2Nn0seyJ4Ijo3NDIuNzczNDM3NSwieSI6NTAzfSx7IngiOjEzNDUuMjE4NzUsInkiOjU2Ny4zNjg4MjA0OTkzMDI1fV0=" marker-end="url(#mermaid-svg_flowchart-v2-pointEnd)"/><path d="M726.944,770L731.467,774.167C735.99,778.333,745.036,786.667,820.801,802.166C896.566,817.666,1039.05,840.331,1110.292,851.664L1181.534,862.997" id="L_CPI_MTX_0" class=" edge-thickness-normal edge-pattern-solid edge-thickness-normal edge-pattern-solid flowchart-link" style=";" data-edge="true" data-et="edge" data-id="L_CPI_MTX_0" data-points="W3sieCI6NzI2Ljk0Mzg3MzM1NTI2MzEsInkiOjc3MH0seyJ4Ijo3NTQuMDgyMDMxMjUsInkiOjc5NX0seyJ4IjoxMTg1LjQ4NDM3NSwieSI6ODYzLjYyNTE5ODU5NjIzMzV9XQ==" marker-end="url(#mermaid-svg_flowchart-v2-pointEnd)"/><path d="M671.582,770L671.582,774.167C671.582,778.333,671.582,786.667,717.105,801.647C762.627,816.627,853.672,838.254,899.195,849.067L944.718,859.88" id="L_CPI_BUF_0" class=" edge-thickness-normal edge-pattern-solid edge-thickness-normal edge-pattern-solid flowchart-link" style=";" data-edge="true" data-et="edge" data-id="L_CPI_BUF_0" data-points="W3sieCI6NjcxLjU4MjAzMTI1LCJ5Ijo3NzB9LHsieCI6NjcxLjU4MjAzMTI1LCJ5Ijo3OTV9LHsieCI6OTQ4LjYwOTM3NSwieSI6ODYwLjgwNDkxMTQ4MTU2MzV9XQ==" marker-end="url(#mermaid-svg_flowchart-v2-pointEnd)"/><path d="M1042.047,922L1042.047,930.167C1042.047,938.333,1042.047,954.667,905.858,967C769.669,979.333,497.292,987.667,361.103,995.333C224.914,1003,224.914,1010,224.914,1013.5L224.914,1017" id="L_BUF_SCPI_0" class=" edge-thickness-normal edge-pattern-solid edge-thickness-normal edge-pattern-solid flowchart-link" style=";" data-edge="true" data-et="edge" data-id="L_BUF_SCPI_0" data-points="W3sieCI6MTA0Mi4wNDY4NzUsInkiOjkyMn0seyJ4IjoxMDQyLjA0Njg3NSwieSI6OTcxfSx7IngiOjIyNC45MTQwNjI1LCJ5Ijo5OTZ9LHsieCI6MjI0LjkxNDA2MjUsInkiOjEwMjF9XQ==" marker-end="url(#mermaid-svg_flowchart-v2-pointEnd)"/><path d="M541.582,735.862L465.59,745.718C389.599,755.574,237.616,775.287,161.624,799.81C85.633,824.333,85.633,853.667,85.633,883C85.633,912.333,85.633,941.667,85.633,960.5C85.633,979.333,85.633,987.667,85.633,1002.5C85.633,1017.333,85.633,1038.667,85.633,1060C85.633,1081.333,85.633,1102.667,95.053,1117.244C104.473,1131.822,123.313,1139.644,132.733,1143.555L142.153,1147.466" id="L_CPI_CC_0" class=" edge-thickness-normal edge-pattern-solid edge-thickness-normal edge-pattern-solid flowchart-link" style=";" data-edge="true" data-et="edge" data-id="L_CPI_CC_0" data-points="W3sieCI6NTQxLjU4MjAzMTI1LCJ5Ijo3MzUuODYxNTI5NDM2MDc4fSx7IngiOjg1LjYzMjgxMjUsInkiOjc5NX0seyJ4Ijo4NS42MzI4MTI1LCJ5Ijo4ODN9LHsieCI6ODUuNjMyODEyNSwieSI6OTcxfSx7IngiOjg1LjYzMjgxMjUsInkiOjk5Nn0seyJ4Ijo4NS42MzI4MTI1LCJ5IjoxMDYwfSx7IngiOjg1LjYzMjgxMjUsInkiOjExMjR9LHsieCI6MTQ1Ljg0NzA0NTg5ODQzNzUsInkiOjExNDl9XQ==" marker-end="url(#mermaid-svg_flowchart-v2-pointEnd)"/><path d="M224.914,1099L224.914,1103.167C224.914,1107.333,224.914,1115.667,225.731,1123.351C226.548,1131.035,228.182,1138.069,228.999,1141.586L229.816,1145.104" id="L_SCPI_CC_0" class=" edge-thickness-normal edge-pattern-solid edge-thickness-normal edge-pattern-solid flowchart-link" style=";" data-edge="true" data-et="edge" data-id="L_SCPI_CC_0" data-points="W3sieCI6MjI0LjkxNDA2MjUsInkiOjEwOTl9LHsieCI6MjI0LjkxNDA2MjUsInkiOjExMjR9LHsieCI6MjMwLjcyMTU1NzYxNzE4NzUsInkiOjExNDl9XQ==" marker-end="url(#mermaid-svg_flowchart-v2-pointEnd)"/><path d="M1307.281,922L1307.281,930.167C1307.281,938.333,1307.281,954.667,1150.577,967C993.872,979.333,680.464,987.667,523.759,1002.5C367.055,1017.333,367.055,1038.667,367.055,1060C367.055,1081.333,367.055,1102.667,359.364,1117.2C351.674,1131.734,336.293,1139.469,328.603,1143.336L320.912,1147.203" id="L_MTX_CC_0" class=" edge-thickness-normal edge-pattern-solid edge-thickness-normal edge-pattern-solid flowchart-link" style=";" data-edge="true" data-et="edge" data-id="L_MTX_CC_0" data-points="W3sieCI6MTMwNy4yODEyNSwieSI6OTIyfSx7IngiOjEzMDcuMjgxMjUsInkiOjk3MX0seyJ4IjozNjcuMDU0Njg3NSwieSI6OTk2fSx7IngiOjM2Ny4wNTQ2ODc1LCJ5IjoxMDYwfSx7IngiOjM2Ny4wNTQ2ODc1LCJ5IjoxMTI0fSx7IngiOjMxNy4zMzg1MDA5NzY1NjI1LCJ5IjoxMTQ5fV0=" marker-end="url(#mermaid-svg_flowchart-v2-pointEnd)"/><path d="M239.781,1227L239.781,1231.167C239.781,1235.333,239.781,1243.667,239.781,1251.333C239.781,1259,239.781,1266,239.781,1269.5L239.781,1273" id="L_CC_AID_0" class=" edge-thickness-normal edge-pattern-solid edge-thickness-normal edge-pattern-solid flowchart-link" style=";" data-edge="true" data-et="edge" data-id="L_CC_AID_0" data-points="W3sieCI6MjM5Ljc4MTI1LCJ5IjoxMjI3fSx7IngiOjIzOS43ODEyNSwieSI6MTI1Mn0seyJ4IjoyMzkuNzgxMjUsInkiOjEyNzd9XQ==" marker-end="url(#mermaid-svg_flowchart-v2-pointEnd)"/><path d="M239.781,1379L239.781,1383.167C239.781,1387.333,239.781,1395.667,239.781,1404C239.781,1412.333,239.781,1420.667,239.781,1429C239.781,1437.333,239.781,1445.667,319.994,1458.393C400.207,1471.119,560.632,1488.238,640.845,1496.797L721.058,1505.357" id="L_AID_AM_0" class=" edge-thickness-normal edge-pattern-solid edge-thickness-normal edge-pattern-solid flowchart-link" style=";" data-edge="true" data-et="edge" data-id="L_AID_AM_0" data-points="W3sieCI6MjM5Ljc4MTI1LCJ5IjoxMzc5fSx7IngiOjIzOS43ODEyNSwieSI6MTQwNH0seyJ4IjoyMzkuNzgxMjUsInkiOjE0Mjl9LHsieCI6MjM5Ljc4MTI1LCJ5IjoxNDU0fSx7IngiOjcyNS4wMzUxNTYyNSwieSI6MTUwNS43ODA5ODA3MjgwMjM1fV0=" marker-end="url(#mermaid-svg_flowchart-v2-pointEnd)"/><path d="M1460.172,618L1460.823,622.167C1461.474,626.333,1462.776,634.667,1463.427,651.5C1464.078,668.333,1464.078,693.667,1464.078,719C1464.078,744.333,1464.078,769.667,1464.078,797C1464.078,824.333,1464.078,853.667,1464.078,883C1464.078,912.333,1464.078,941.667,1464.078,960.5C1464.078,979.333,1464.078,987.667,1464.078,1002.5C1464.078,1017.333,1464.078,1038.667,1464.078,1060C1464.078,1081.333,1464.078,1102.667,1464.078,1124C1464.078,1145.333,1464.078,1166.667,1464.078,1188C1464.078,1209.333,1464.078,1230.667,1464.078,1254C1464.078,1277.333,1464.078,1302.667,1464.078,1328C1464.078,1353.333,1464.078,1378.667,1381.536,1395.5C1298.993,1412.333,1133.909,1420.667,1051.367,1429C968.824,1437.333,968.824,1445.667,961.005,1453.704C953.186,1461.742,937.547,1469.484,929.728,1473.354L921.909,1477.225" id="L_TTL_AM_0" class=" edge-thickness-normal edge-pattern-solid edge-thickness-normal edge-pattern-solid flowchart-link" style=";" data-edge="true" data-et="edge" data-id="L_TTL_AM_0" data-points="W3sieCI6MTQ2MC4xNzE4NzUsInkiOjYxOH0seyJ4IjoxNDY0LjA3ODEyNSwieSI6NjQzfSx7IngiOjE0NjQuMDc4MTI1LCJ5Ijo3MTl9LHsieCI6MTQ2NC4wNzgxMjUsInkiOjc5NX0seyJ4IjoxNDY0LjA3ODEyNSwieSI6ODgzfSx7IngiOjE0NjQuMDc4MTI1LCJ5Ijo5NzF9LHsieCI6MTQ2NC4wNzgxMjUsInkiOjk5Nn0seyJ4IjoxNDY0LjA3ODEyNSwieSI6MTA2MH0seyJ4IjoxNDY0LjA3ODEyNSwieSI6MTEyNH0seyJ4IjoxNDY0LjA3ODEyNSwieSI6MTE4OH0seyJ4IjoxNDY0LjA3ODEyNSwieSI6MTI1Mn0seyJ4IjoxNDY0LjA3ODEyNSwieSI6MTMyOH0seyJ4IjoxNDY0LjA3ODEyNSwieSI6MTQwNH0seyJ4Ijo5NjguODI0MjE4NzUsInkiOjE0Mjl9LHsieCI6OTY4LjgyNDIxODc1LCJ5IjoxNDU0fSx7IngiOjkxOC4zMjM3MzA0Njg3NSwieSI6MTQ3OX1d" marker-end="url(#mermaid-svg_flowchart-v2-pointEnd)"/><path d="M839.543,1557L839.543,1561.167C839.543,1565.333,839.543,1573.667,904.173,1587.419C968.803,1601.171,1098.064,1620.341,1162.694,1629.926L1227.325,1639.512" id="L_AM_LLM_0" class=" edge-thickness-normal edge-pattern-solid edge-thickness-normal edge-pattern-solid flowchart-link" style=";" data-edge="true" data-et="edge" data-id="L_AM_LLM_0" data-points="W3sieCI6ODM5LjU0Mjk2ODc1LCJ5IjoxNTU3fSx7IngiOjgzOS41NDI5Njg3NSwieSI6MTU4Mn0seyJ4IjoxMjMxLjI4MTI1LCJ5IjoxNjQwLjA5ODU2MzA5NzkxNX1d" marker-end="url(#mermaid-svg_flowchart-v2-pointEnd)"/><path d="M954.051,1526.896L1072.266,1536.08C1190.48,1545.264,1426.91,1563.632,1552.233,1576.665C1677.557,1589.698,1691.774,1597.397,1698.882,1601.246L1705.991,1605.095" id="L_AM_MAP_0" class=" edge-thickness-normal edge-pattern-solid edge-thickness-normal edge-pattern-solid flowchart-link" style=";" data-edge="true" data-et="edge" data-id="L_AM_MAP_0" data-points="W3sieCI6OTU0LjA1MDc4MTI1LCJ5IjoxNTI2Ljg5NjAwMzY0MTY3NDV9LHsieCI6MTY2My4zMzk4NDM3NSwieSI6MTU4Mn0seyJ4IjoxNzA5LjUwODEyMDg4ODE1OCwieSI6MTYwN31d" marker-end="url(#mermaid-svg_flowchart-v2-pointEnd)"/><path d="M1686.053,946L1678.934,950.167C1671.816,954.333,1657.578,962.667,1650.459,971C1643.34,979.333,1643.34,987.667,1643.34,1002.5C1643.34,1017.333,1643.34,1038.667,1643.34,1060C1643.34,1081.333,1643.34,1102.667,1643.34,1124C1643.34,1145.333,1643.34,1166.667,1643.34,1188C1643.34,1209.333,1643.34,1230.667,1643.34,1254C1643.34,1277.333,1643.34,1302.667,1643.34,1328C1643.34,1353.333,1643.34,1378.667,1643.34,1395.5C1643.34,1412.333,1643.34,1420.667,1643.34,1429C1643.34,1437.333,1643.34,1445.667,1643.34,1460.5C1643.34,1475.333,1643.34,1496.667,1643.34,1518C1643.34,1539.333,1643.34,1560.667,1615.543,1578.584C1587.746,1596.502,1532.152,1611.003,1504.355,1618.254L1476.558,1625.505" id="L_TAX_LLM_0" class=" edge-thickness-normal edge-pattern-solid edge-thickness-normal edge-pattern-solid flowchart-link" style=";" data-edge="true" data-et="edge" data-id="L_TAX_LLM_0" data-points="W3sieCI6MTY4Ni4wNTMzNTU4MjM4NjM3LCJ5Ijo5NDZ9LHsieCI6MTY0My4zMzk4NDM3NSwieSI6OTcxfSx7IngiOjE2NDMuMzM5ODQzNzUsInkiOjk5Nn0seyJ4IjoxNjQzLjMzOTg0Mzc1LCJ5IjoxMDYwfSx7IngiOjE2NDMuMzM5ODQzNzUsInkiOjExMjR9LHsieCI6MTY0My4zMzk4NDM3NSwieSI6MTE4OH0seyJ4IjoxNjQzLjMzOTg0Mzc1LCJ5IjoxMjUyfSx7IngiOjE2NDMuMzM5ODQzNzUsInkiOjEzMjh9LHsieCI6MTY0My4zMzk4NDM3NSwieSI6MTQwNH0seyJ4IjoxNjQzLjMzOTg0Mzc1LCJ5IjoxNDI5fSx7IngiOjE2NDMuMzM5ODQzNzUsInkiOjE0NTR9LHsieCI6MTY0My4zMzk4NDM3NSwieSI6MTUxOH0seyJ4IjoxNjQzLjMzOTg0Mzc1LCJ5IjoxNTgyfSx7IngiOjE0NzIuNjg3NSwieSI6MTYyNi41MTQ2MjA1MTAyNzY3fV0=" marker-end="url(#mermaid-svg_flowchart-v2-pointEnd)"/><path d="M1901.173,946L1908.281,950.167C1915.39,954.333,1929.607,962.667,1936.716,971C1943.824,979.333,1943.824,987.667,1943.824,1002.5C1943.824,1017.333,1943.824,1038.667,1943.824,1060C1943.824,1081.333,1943.824,1102.667,1943.824,1124C1943.824,1145.333,1943.824,1166.667,1943.824,1188C1943.824,1209.333,1943.824,1230.667,1943.824,1254C1943.824,1277.333,1943.824,1302.667,1943.824,1328C1943.824,1353.333,1943.824,1378.667,1943.824,1395.5C1943.824,1412.333,1943.824,1420.667,1943.824,1429C1943.824,1437.333,1943.824,1445.667,1943.824,1460.5C1943.824,1475.333,1943.824,1496.667,1943.824,1518C1943.824,1539.333,1943.824,1560.667,1936.728,1575.182C1929.631,1589.698,1915.437,1597.395,1908.341,1601.244L1901.244,1605.093" id="L_TAX_MAP_0" class=" edge-thickness-normal edge-pattern-solid edge-thickness-normal edge-pattern-solid flowchart-link" style=";" data-edge="true" data-et="edge" data-id="L_TAX_MAP_0" data-points="W3sieCI6MTkwMS4xNzI4NTE1NjI1LCJ5Ijo5NDZ9LHsieCI6MTk0My44MjQyMTg3NSwieSI6OTcxfSx7IngiOjE5NDMuODI0MjE4NzUsInkiOjk5Nn0seyJ4IjoxOTQzLjgyNDIxODc1LCJ5IjoxMDYwfSx7IngiOjE5NDMuODI0MjE4NzUsInkiOjExMjR9LHsieCI6MTk0My44MjQyMTg3NSwieSI6MTE4OH0seyJ4IjoxOTQzLjgyNDIxODc1LCJ5IjoxMjUyfSx7IngiOjE5NDMuODI0MjE4NzUsInkiOjEzMjh9LHsieCI6MTk0My44MjQyMTg3NSwieSI6MTQwNH0seyJ4IjoxOTQzLjgyNDIxODc1LCJ5IjoxNDI5fSx7IngiOjE5NDMuODI0MjE4NzUsInkiOjE0NTR9LHsieCI6MTk0My44MjQyMTg3NSwieSI6MTUxOH0seyJ4IjoxOTQzLjgyNDIxODc1LCJ5IjoxNTgyfSx7IngiOjE4OTcuNzI3ODk4ODQ4Njg0MiwieSI6MTYwN31d" marker-end="url(#mermaid-svg_flowchart-v2-pointEnd)"/><path d="M1626.52,286.223L1706.092,294.853C1785.665,303.482,1944.811,320.741,2024.384,333.537C2103.957,346.333,2103.957,354.667,2103.957,369.5C2103.957,384.333,2103.957,405.667,2103.957,429C2103.957,452.333,2103.957,477.667,2103.957,503C2103.957,528.333,2103.957,553.667,2103.957,577C2103.957,600.333,2103.957,621.667,2103.957,645C2103.957,668.333,2103.957,693.667,2103.957,719C2103.957,744.333,2103.957,769.667,2103.957,797C2103.957,824.333,2103.957,853.667,2103.957,883C2103.957,912.333,2103.957,941.667,2103.957,960.5C2103.957,979.333,2103.957,987.667,2103.957,1002.5C2103.957,1017.333,2103.957,1038.667,2103.957,1060C2103.957,1081.333,2103.957,1102.667,2103.957,1124C2103.957,1145.333,2103.957,1166.667,2103.957,1188C2103.957,1209.333,2103.957,1230.667,2103.957,1254C2103.957,1277.333,2103.957,1302.667,2103.957,1328C2103.957,1353.333,2103.957,1378.667,2103.957,1395.5C2103.957,1412.333,2103.957,1420.667,2103.957,1429C2103.957,1437.333,2103.957,1445.667,2103.957,1460.5C2103.957,1475.333,2103.957,1496.667,2103.957,1518C2103.957,1539.333,2103.957,1560.667,2103.957,1576.833C2103.957,1593,2103.957,1604,2103.957,1609.5L2103.957,1615" id="L_QBO_CCW_0" class=" edge-thickness-normal edge-pattern-solid edge-thickness-normal edge-pattern-solid flowchart-link" style=";" data-edge="true" data-et="edge" data-id="L_QBO_CCW_0" data-points="W3sieCI6MTYyNi41MTk1MzEyNSwieSI6Mjg2LjIyMzE5NTk2NDk5ODI0fSx7IngiOjIxMDMuOTU3MDMxMjUsInkiOjMzOH0seyJ4IjoyMTAzLjk1NzAzMTI1LCJ5IjozNjN9LHsieCI6MjEwMy45NTcwMzEyNSwieSI6NDI3fSx7IngiOjIxMDMuOTU3MDMxMjUsInkiOjUwM30seyJ4IjoyMTAzLjk1NzAzMTI1LCJ5Ijo1Nzl9LHsieCI6MjEwMy45NTcwMzEyNSwieSI6NjQzfSx7IngiOjIxMDMuOTU3MDMxMjUsInkiOjcxOX0seyJ4IjoyMTAzLjk1NzAzMTI1LCJ5Ijo3OTV9LHsieCI6MjEwMy45NTcwMzEyNSwieSI6ODgzfSx7IngiOjIxMDMuOTU3MDMxMjUsInkiOjk3MX0seyJ4IjoyMTAzLjk1NzAzMTI1LCJ5Ijo5OTZ9LHsieCI6MjEwMy45NTcwMzEyNSwieSI6MTA2MH0seyJ4IjoyMTAzLjk1NzAzMTI1LCJ5IjoxMTI0fSx7IngiOjIxMDMuOTU3MDMxMjUsInkiOjExODh9LHsieCI6MjEwMy45NTcwMzEyNSwieSI6MTI1Mn0seyJ4IjoyMTAzLjk1NzAzMTI1LCJ5IjoxMzI4fSx7IngiOjIxMDMuOTU3MDMxMjUsInkiOjE0MDR9LHsieCI6MjEwMy45NTcwMzEyNSwieSI6MTQyOX0seyJ4IjoyMTAzLjk1NzAzMTI1LCJ5IjoxNDU0fSx7IngiOjIxMDMuOTU3MDMxMjUsInkiOjE1MTh9LHsieCI6MjEwMy45NTcwMzEyNSwieSI6MTU4Mn0seyJ4IjoyMTAzLjk1NzAzMTI1LCJ5IjoxNjE5fV0=" marker-end="url(#mermaid-svg_flowchart-v2-pointEnd)"/><path d="M1351.984,1697L1351.984,1703.167C1351.984,1709.333,1351.984,1721.667,1388.235,1735.673C1424.486,1749.68,1496.987,1765.36,1533.238,1773.2L1569.489,1781.039" id="L_LLM_MW_0" class=" edge-thickness-normal edge-pattern-solid edge-thickness-normal edge-pattern-solid flowchart-link" style=";" data-edge="true" data-et="edge" data-id="L_LLM_MW_0" data-points="W3sieCI6MTM1MS45ODQzNzUsInkiOjE2OTd9LHsieCI6MTM1MS45ODQzNzUsInkiOjE3MzR9LHsieCI6MTU3My4zOTg0Mzc1LCJ5IjoxNzgxLjg4NTAxODExODc2MTN9XQ==" marker-end="url(#mermaid-svg_flowchart-v2-pointEnd)"/><path d="M1803.691,1709L1803.691,1713.167C1803.691,1717.333,1803.691,1725.667,1798.724,1733.597C1793.757,1741.528,1783.823,1749.056,1778.856,1752.82L1773.888,1756.584" id="L_MAP_MW_0" class=" edge-thickness-normal edge-pattern-solid edge-thickness-normal edge-pattern-solid flowchart-link" style=";" data-edge="true" data-et="edge" data-id="L_MAP_MW_0" data-points="W3sieCI6MTgwMy42OTE0MDYyNSwieSI6MTcwOX0seyJ4IjoxODAzLjY5MTQwNjI1LCJ5IjoxNzM0fSx7IngiOjE3NzAuNzAwMjk4MTA4NTUyNywieSI6MTc1OX1d" marker-end="url(#mermaid-svg_flowchart-v2-pointEnd)"/><path d="M2103.957,1697L2103.957,1703.167C2103.957,1709.333,2103.957,1721.667,2059.519,1736.265C2015.081,1750.863,1926.205,1767.726,1881.766,1776.157L1837.328,1784.589" id="L_CCW_MW_0" class=" edge-thickness-normal edge-pattern-solid edge-thickness-normal edge-pattern-solid flowchart-link" style=";" data-edge="true" data-et="edge" data-id="L_CCW_MW_0" data-points="W3sieCI6MjEwMy45NTcwMzEyNSwieSI6MTY5N30seyJ4IjoyMTAzLjk1NzAzMTI1LCJ5IjoxNzM0fSx7IngiOjE4MzMuMzk4NDM3NSwieSI6MTc4NS4zMzQ0NDUwNjIwNzE2fV0=" marker-end="url(#mermaid-svg_flowchart-v2-pointEnd)"/><path d="M1703.398,1861L1703.398,1865.167C1703.398,1869.333,1703.398,1877.667,1703.398,1886C1703.398,1894.333,1703.398,1902.667,1703.398,1910.333C1703.398,1918,1703.398,1925,1703.398,1928.5L1703.398,1932" id="L_MW_FRP_0" class=" edge-thickness-normal edge-pattern-solid edge-thickness-normal edge-pattern-solid flowchart-link" style=";" data-edge="true" data-et="edge" data-id="L_MW_FRP_0" data-points="W3sieCI6MTcwMy4zOTg0Mzc1LCJ5IjoxODYxfSx7IngiOjE3MDMuMzk4NDM3NSwieSI6MTg4Nn0seyJ4IjoxNzAzLjM5ODQzNzUsInkiOjE5MTF9LHsieCI6MTcwMy4zOTg0Mzc1LCJ5IjoxOTM2fV0=" marker-end="url(#mermaid-svg_flowchart-v2-pointEnd)"/><path d="M1513.809,160L1513.809,164.167C1513.809,168.333,1513.809,176.667,1513.809,185C1513.809,193.333,1513.809,201.667,1513.809,205.833L1513.809,210" id="L_ORCH_SRC_0" class=" edge-thickness-invisible edge-pattern-solid" style=";" data-edge="true" data-et="edge" data-id="L_ORCH_SRC_0" data-points="W3sieCI6NTgzLjE2NDA2MjUsInkiOjkyLjE4MTY0MTgwMjc4NDQxfSx7IngiOjE1MTMuODA4NTkzNzUsInkiOjE2MH0seyJ4IjoxNTEzLjgwODU5Mzc1LCJ5IjoxODV9LHsieCI6MTUxMy44MDg1OTM3NSwieSI6MjEwfSx7IngiOjE1MTMuODA4NTkzNzUsInkiOjIzNX1d"/><path d="M459.555,1404L547.766,1408.167C635.978,1412.333,812.401,1420.667,900.613,1429C988.824,1437.333,988.824,1445.667,988.824,1449.833L988.824,1454" id="L_STAT_ALERT_0" class=" edge-thickness-invisible edge-pattern-solid" style=";" data-edge="true" data-et="edge" data-id="L_STAT_ALERT_0" data-points="W3sieCI6NDY2LjAwMjA1NTkyMTA1MjY2LCJ5Ijo0NTR9LHsieCI6NDU5LjU1NDY4NzUsInkiOjUwM30seyJ4Ijo0NTkuNTU0Njg3NSwieSI6NTc5fSx7IngiOjQ1OS41NTQ2ODc1LCJ5Ijo2NDN9LHsieCI6NDU5LjU1NDY4NzUsInkiOjcxOX0seyJ4Ijo0NTkuNTU0Njg3NSwieSI6Nzk1fSx7IngiOjQ1OS41NTQ2ODc1LCJ5Ijo4ODN9LHsieCI6NDU5LjU1NDY4NzUsInkiOjk3MX0seyJ4Ijo0NTkuNTU0Njg3NSwieSI6OTk2fSx7IngiOjQ1OS41NTQ2ODc1LCJ5IjoxMDYwfSx7IngiOjQ1OS41NTQ2ODc1LCJ5IjoxMTI0fSx7IngiOjQ1OS41NTQ2ODc1LCJ5IjoxMTg4fSx7IngiOjQ1OS41NTQ2ODc1LCJ5IjoxMjUyfSx7IngiOjQ1OS41NTQ2ODc1LCJ5IjoxMzI4fSx7IngiOjQ1OS41NTQ2ODc1LCJ5IjoxNDA0fSx7IngiOjk4OC44MjQyMTg3NSwieSI6MTQyOX0seyJ4Ijo5ODguODI0MjE4NzUsInkiOjE0NTR9LHsieCI6OTMwLjUxMTIzMDQ2ODc1LCJ5IjoxNDc5fV0="/></g><g class="edgeLabels"><g class="edgeLabel" transform="translate(220.6875, 274)"><g class="label" data-id="L_P1_DE_0" transform="translate(-26.2421875, -12)"><foreignObject width="52.484375" height="24"><div xmlns="http://www.w3.org/1999/xhtml" class="labelBkg" style="display: table-cell; white-space: nowrap; line-height: 1.5; max-width: 200px; text-align: center;"><span class="edgeLabel "><p>training</p></span></div></foreignObject></g></g><g class="edgeLabel" transform="translate(469.5546875, 274)"><g class="label" data-id="L_FAM_DE_0" transform="translate(-16.453125, -12)"><foreignObject width="32.90625" height="24"><div xmlns="http://www.w3.org/1999/xhtml" class="labelBkg" style="display: table-cell; white-space: nowrap; line-height: 1.5; max-width: 200px; text-align: center;"><span class="edgeLabel "><p>daily</p></span></div></foreignObject></g></g><g class="edgeLabel"><g class="label" data-id="L_QBO_DE_0" transform="translate(0, 0)"><foreignObject width="0" height="0"><div xmlns="http://www.w3.org/1999/xhtml" class="labelBkg" style="display: table-cell; white-space: nowrap; line-height: 1.5; max-width: 200px; text-align: center;"><span class="edgeLabel "></span></div></foreignObject></g></g><g class="edgeLabel"><g class="label" data-id="L_DE_TTL_0" transform="translate(0, 0)"><foreignObject width="0" height="0"><div xmlns="http://www.w3.org/1999/xhtml" class="labelBkg" style="display: table-cell; white-space: nowrap; line-height: 1.5; max-width: 200px; text-align: center;"><span class="edgeLabel "></span></div></foreignObject></g></g><g class="edgeLabel"><g class="label" data-id="L_TTL_CPI_0" transform="translate(0, 0)"><foreignObject width="0" height="0"><div xmlns="http://www.w3.org/1999/xhtml" class="labelBkg" style="display: table-cell; white-space: nowrap; line-height: 1.5; max-width: 200px; text-align: center;"><span class="edgeLabel "></span></div></foreignObject></g></g><g class="edgeLabel" transform="translate(742.7734375, 503)"><g class="label" data-id="L_INJ_TTL_0" transform="translate(-12.8984375, -12)"><foreignObject width="25.796875" height="24"><div xmlns="http://www.w3.org/1999/xhtml" class="labelBkg" style="display: table-cell; white-space: nowrap; line-height: 1.5; max-width: 200px; text-align: center;"><span class="edgeLabel "><p>test</p></span></div></foreignObject></g></g><g class="edgeLabel"><g class="label" data-id="L_CPI_MTX_0" transform="translate(0, 0)"><foreignObject width="0" height="0"><div xmlns="http://www.w3.org/1999/xhtml" class="labelBkg" style="display: table-cell; white-space: nowrap; line-height: 1.5; max-width: 200px; text-align: center;"><span class="edgeLabel "></span></div></foreignObject></g></g><g class="edgeLabel"><g class="label" data-id="L_CPI_BUF_0" transform="translate(0, 0)"><foreignObject width="0" height="0"><div xmlns="http://www.w3.org/1999/xhtml" class="labelBkg" style="display: table-cell; white-space: nowrap; line-height: 1.5; max-width: 200px; text-align: center;"><span class="edgeLabel "></span></div></foreignObject></g></g><g class="edgeLabel"><g class="label" data-id="L_BUF_SCPI_0" transform="translate(0, 0)"><foreignObject width="0" height="0"><div xmlns="http://www.w3.org/1999/xhtml" class="labelBkg" style="display: table-cell; white-space: nowrap; line-height: 1.5; max-width: 200px; text-align: center;"><span class="edgeLabel "></span></div></foreignObject></g></g><g class="edgeLabel"><g class="label" data-id="L_CPI_CC_0" transform="translate(0, 0)"><foreignObject width="0" height="0"><div xmlns="http://www.w3.org/1999/xhtml" class="labelBkg" style="display: table-cell; white-space: nowrap; line-height: 1.5; max-width: 200px; text-align: center;"><span class="edgeLabel "></span></div></foreignObject></g></g><g class="edgeLabel"><g class="label" data-id="L_SCPI_CC_0" transform="translate(0, 0)"><foreignObject width="0" height="0"><div xmlns="http://www.w3.org/1999/xhtml" class="labelBkg" style="display: table-cell; white-space: nowrap; line-height: 1.5; max-width: 200px; text-align: center;"><span class="edgeLabel "></span></div></foreignObject></g></g><g class="edgeLabel"><g class="label" data-id="L_MTX_CC_0" transform="translate(0, 0)"><foreignObject width="0" height="0"><div xmlns="http://www.w3.org/1999/xhtml" class="labelBkg" style="display: table-cell; white-space: nowrap; line-height: 1.5; max-width: 200px; text-align: center;"><span class="edgeLabel "></span></div></foreignObject></g></g><g class="edgeLabel"><g class="label" data-id="L_CC_AID_0" transform="translate(0, 0)"><foreignObject width="0" height="0"><div xmlns="http://www.w3.org/1999/xhtml" class="labelBkg" style="display: table-cell; white-space: nowrap; line-height: 1.5; max-width: 200px; text-align: center;"><span class="edgeLabel "></span></div></foreignObject></g></g><g class="edgeLabel"><g class="label" data-id="L_AID_AM_0" transform="translate(0, 0)"><foreignObject width="0" height="0"><div xmlns="http://www.w3.org/1999/xhtml" class="labelBkg" style="display: table-cell; white-space: nowrap; line-height: 1.5; max-width: 200px; text-align: center;"><span class="edgeLabel "></span></div></foreignObject></g></g><g class="edgeLabel"><g class="label" data-id="L_TTL_AM_0" transform="translate(0, 0)"><foreignObject width="0" height="0"><div xmlns="http://www.w3.org/1999/xhtml" class="labelBkg" style="display: table-cell; white-space: nowrap; line-height: 1.5; max-width: 200px; text-align: center;"><span class="edgeLabel "></span></div></foreignObject></g></g><g class="edgeLabel"><g class="label" data-id="L_AM_LLM_0" transform="translate(0, 0)"><foreignObject width="0" height="0"><div xmlns="http://www.w3.org/1999/xhtml" class="labelBkg" style="display: table-cell; white-space: nowrap; line-height: 1.5; max-width: 200px; text-align: center;"><span class="edgeLabel "></span></div></foreignObject></g></g><g class="edgeLabel"><g class="label" data-id="L_AM_MAP_0" transform="translate(0, 0)"><foreignObject width="0" height="0"><div xmlns="http://www.w3.org/1999/xhtml" class="labelBkg" style="display: table-cell; white-space: nowrap; line-height: 1.5; max-width: 200px; text-align: center;"><span class="edgeLabel "></span></div></foreignObject></g></g><g class="edgeLabel"><g class="label" data-id="L_TAX_LLM_0" transform="translate(0, 0)"><foreignObject width="0" height="0"><div xmlns="http://www.w3.org/1999/xhtml" class="labelBkg" style="display: table-cell; white-space: nowrap; line-height: 1.5; max-width: 200px; text-align: center;"><span class="edgeLabel "></span></div></foreignObject></g></g><g class="edgeLabel"><g class="label" data-id="L_TAX_MAP_0" transform="translate(0, 0)"><foreignObject width="0" height="0"><div xmlns="http://www.w3.org/1999/xhtml" class="labelBkg" style="display: table-cell; white-space: nowrap; line-height: 1.5; max-width: 200px; text-align: center;"><span class="edgeLabel "></span></div></foreignObject></g></g><g class="edgeLabel"><g class="label" data-id="L_QBO_CCW_0" transform="translate(0, 0)"><foreignObject width="0" height="0"><div xmlns="http://www.w3.org/1999/xhtml" class="labelBkg" style="display: table-cell; white-space: nowrap; line-height: 1.5; max-width: 200px; text-align: center;"><span class="edgeLabel "></span></div></foreignObject></g></g><g class="edgeLabel"><g class="label" data-id="L_LLM_MW_0" transform="translate(0, 0)"><foreignObject width="0" height="0"><div xmlns="http://www.w3.org/1999/xhtml" class="labelBkg" style="display: table-cell; white-space: nowrap; line-height: 1.5; max-width: 200px; text-align: center;"><span class="edgeLabel "></span></div></foreignObject></g></g><g class="edgeLabel"><g class="label" data-id="L_MAP_MW_0" transform="translate(0, 0)"><foreignObject width="0" height="0"><div xmlns="http://www.w3.org/1999/xhtml" class="labelBkg" style="display: table-cell; white-space: nowrap; line-height: 1.5; max-width: 200px; text-align: center;"><span class="edgeLabel "></span></div></foreignObject></g></g><g class="edgeLabel"><g class="label" data-id="L_CCW_MW_0" transform="translate(0, 0)"><foreignObject width="0" height="0"><div xmlns="http://www.w3.org/1999/xhtml" class="labelBkg" style="display: table-cell; white-space: nowrap; line-height: 1.5; max-width: 200px; text-align: center;"><span class="edgeLabel "></span></div></foreignObject></g></g><g class="edgeLabel"><g class="label" data-id="L_MW_FRP_0" transform="translate(0, 0)"><foreignObject width="0" height="0"><div xmlns="http://www.w3.org/1999/xhtml" class="labelBkg" style="display: table-cell; white-space: nowrap; line-height: 1.5; max-width: 200px; text-align: center;"><span class="edgeLabel "></span></div></foreignObject></g></g><g class="edgeLabel"><g class="label" data-id="L_ORCH_SRC_0" transform="translate(0, 0)"><foreignObject width="0" height="0"><div xmlns="http://www.w3.org/1999/xhtml" class="labelBkg" style="display: table-cell; white-space: nowrap; line-height: 1.5; max-width: 200px; text-align: center;"><span class="edgeLabel "></span></div></foreignObject></g></g><g class="edgeLabel"><g class="label" data-id="L_STAT_ALERT_0" transform="translate(0, 0)"><foreignObject width="0" height="0"><div xmlns="http://www.w3.org/1999/xhtml" class="labelBkg" style="display: table-cell; white-space: nowrap; line-height: 1.5; max-width: 200px; text-align: center;"><span class="edgeLabel "></span></div></foreignObject></g></g></g><g class="nodes"><g class="node default  " id="flowchart-P1-0" transform="translate(470.890625, 84)"><rect class="basic label-container" style="" x="-112.2734375" y="-39" width="224.546875" height="78"/><g class="label" style="" transform="translate(-82.2734375, -24)"><rect/><foreignObject width="164.546875" height="48"><div xmlns="http://www.w3.org/1999/xhtml" style="display: table-cell; white-space: nowrap; line-height: 1.5; max-width: 200px; text-align: center;"><span class="nodeLabel "><p>Phase 1 Director Agent<br />(Training run)</p></span></div></foreignObject></g></g><g class="node default  " id="flowchart-FAM-1" transform="translate(819.0546875, 84)"><rect class="basic label-container" style="" x="-130" y="-51" width="260" height="102"/><g class="label" style="" transform="translate(-100, -36)"><rect/><foreignObject width="200" height="72"><div xmlns="http://www.w3.org/1999/xhtml" style="display: table; white-space: break-spaces; line-height: 1.5; max-width: 200px; text-align: center; width: 200px;"><span class="nodeLabel "><p>Fraud Analysis Flow Manager<br />(Daily run)</p></span></div></foreignObject></g></g><g class="node default  " id="flowchart-QBO-2" transform="translate(1513.80859375, 274)"><rect class="basic label-container" style="" x="-112.7109375" y="-39" width="225.421875" height="78"/><g class="label" style="" transform="translate(-82.7109375, -24)"><rect/><foreignObject width="165.421875" height="48"><div xmlns="http://www.w3.org/1999/xhtml" style="display: table-cell; white-space: nowrap; line-height: 1.5; max-width: 200px; text-align: center;"><span class="nodeLabel "><p>QuickBooks Online API<br />OAuth 2.0, read-only</p></span></div></foreignObject></g></g><g class="node default  " id="flowchart-TTL-3" transform="translate(1454.078125, 579)"><rect class="basic label-container" style="" x="-108.859375" y="-39" width="217.71875" height="78"/><g class="label" style="" transform="translate(-78.859375, -24)"><rect/><foreignObject width="157.71875" height="48"><div xmlns="http://www.w3.org/1999/xhtml" style="display: table-cell; white-space: nowrap; line-height: 1.5; max-width: 200px; text-align: center;"><span class="nodeLabel "><p>Today.ttl / Yesterday.ttl<br />OWL snapshots</p></span></div></foreignObject></g></g><g class="node default  " id="flowchart-MTX-4" transform="translate(1307.28125, 883)"><rect class="basic label-container" style="" x="-121.796875" y="-39" width="243.59375" height="78"/><g class="label" style="" transform="translate(-91.796875, -24)"><rect/><foreignObject width="183.59375" height="48"><div xmlns="http://www.w3.org/1999/xhtml" style="display: table-cell; white-space: nowrap; line-height: 1.5; max-width: 200px; text-align: center;"><span class="nodeLabel "><p>Training Matrix .xlsx<br />μ col B, σ col C, daily cols</p></span></div></foreignObject></g></g><g class="node default  " id="flowchart-BUF-5" transform="translate(1042.046875, 883)"><rect class="basic label-container" style="" x="-93.4375" y="-39" width="186.875" height="78"/><g class="label" style="" transform="translate(-63.4375, -24)"><rect/><foreignObject width="126.875" height="48"><div xmlns="http://www.w3.org/1999/xhtml" style="display: table-cell; white-space: nowrap; line-height: 1.5; max-width: 200px; text-align: center;"><span class="nodeLabel "><p>CPI Rolling Buffer<br />last 30 days</p></span></div></foreignObject></g></g><g class="node default  " id="flowchart-TAX-6" transform="translate(1793.69140625, 883)"><rect class="basic label-container" style="" x="-130" y="-63" width="260" height="126"/><g class="label" style="" transform="translate(-100, -48)"><rect/><foreignObject width="200" height="96"><div xmlns="http://www.w3.org/1999/xhtml" style="display: table; white-space: break-spaces; line-height: 1.5; max-width: 200px; text-align: center; width: 200px;"><span class="nodeLabel "><p>Asset_Misappropriation.ttl +<br />Curated Transaction Types.ttl<br />(ACFE Fraud Tree)</p></span></div></foreignObject></g></g><g class="node default  " id="flowchart-DE-7" transform="translate(469.5546875, 427)"><rect class="basic label-container" style="" x="-107.3828125" y="-27" width="214.765625" height="54"/><g class="label" style="" transform="translate(-77.3828125, -12)"><rect/><foreignObject width="154.765625" height="24"><div xmlns="http://www.w3.org/1999/xhtml" style="display: table-cell; white-space: nowrap; line-height: 1.5; max-width: 200px; text-align: center;"><span class="nodeLabel "><p>Data Extraction Agent</p></span></div></foreignObject></g></g><g class="node default  " id="flowchart-INJ-8" transform="translate(742.7734375, 427)"><rect class="basic label-container" style="" x="-115.8359375" y="-39" width="231.671875" height="78"/><g class="label" style="" transform="translate(-85.8359375, -24)"><rect/><foreignObject width="171.671875" height="48"><div xmlns="http://www.w3.org/1999/xhtml" style="display: table-cell; white-space: nowrap; line-height: 1.5; max-width: 200px; text-align: center;"><span class="nodeLabel "><p>Anomaly Injection Agent<br />(demo / test only)</p></span></div></foreignObject></g></g><g class="node default  " id="flowchart-CPI-9" transform="translate(671.58203125, 719)"><rect class="basic label-container" style="" x="-130" y="-51" width="260" height="102"/><g class="label" style="" transform="translate(-100, -36)"><rect/><foreignObject width="200" height="72"><div xmlns="http://www.w3.org/1999/xhtml" style="display: table; white-space: break-spaces; line-height: 1.5; max-width: 200px; text-align: center; width: 200px;"><span class="nodeLabel "><p>CPI Analysis Agent<br />Jaccard persistence + dollar-weighted wCPI</p></span></div></foreignObject></g></g><g class="node default  " id="flowchart-SCPI-10" transform="translate(224.9140625, 1060)"><rect class="basic label-container" style="" x="-104.28125" y="-39" width="208.5625" height="78"/><g class="label" style="" transform="translate(-74.28125, -24)"><rect/><foreignObject width="148.5625" height="48"><div xmlns="http://www.w3.org/1999/xhtml" style="display: table-cell; white-space: nowrap; line-height: 1.5; max-width: 200px; text-align: center;"><span class="nodeLabel "><p>Sequence CPI Agent<br />slow-burn, window L</p></span></div></foreignObject></g></g><g class="node default  " id="flowchart-CC-11" transform="translate(239.78125, 1188)"><rect class="basic label-container" style="" x="-119.828125" y="-39" width="239.65625" height="78"/><g class="label" style="" transform="translate(-89.828125, -24)"><rect/><foreignObject width="179.65625" height="48"><div xmlns="http://www.w3.org/1999/xhtml" style="display: table-cell; white-space: nowrap; line-height: 1.5; max-width: 200px; text-align: center;"><span class="nodeLabel "><p>Churn Comparison Agent<br />z-score vs μ/σ</p></span></div></foreignObject></g></g><g class="node default  " id="flowchart-AID-12" transform="translate(239.78125, 1328)"><rect class="basic label-container" style="" x="-130" y="-51" width="260" height="102"/><g class="label" style="" transform="translate(-100, -36)"><rect/><foreignObject width="200" height="72"><div xmlns="http://www.w3.org/1999/xhtml" style="display: table; white-space: break-spaces; line-height: 1.5; max-width: 200px; text-align: center; width: 200px;"><span class="nodeLabel "><p>Anomaly Identification Agent<br />top-3 by |z|</p></span></div></foreignObject></g></g><g class="node default  " id="flowchart-AM-13" transform="translate(839.54296875, 1518)"><rect class="basic label-container" style="" x="-114.5078125" y="-39" width="229.015625" height="78"/><g class="label" style="" transform="translate(-84.5078125, -24)"><rect/><foreignObject width="169.015625" height="48"><div xmlns="http://www.w3.org/1999/xhtml" style="display: table-cell; white-space: nowrap; line-height: 1.5; max-width: 200px; text-align: center;"><span class="nodeLabel "><p>Account Mapping Agent<br />Chart of Accounts</p></span></div></foreignObject></g></g><g class="node default  " id="flowchart-LLM-14" transform="translate(1351.984375, 1658)"><rect class="basic label-container" style="" x="-120.703125" y="-39" width="241.40625" height="78"/><g class="label" style="" transform="translate(-90.703125, -24)"><rect/><foreignObject width="181.40625" height="48"><div xmlns="http://www.w3.org/1999/xhtml" style="display: table-cell; white-space: nowrap; line-height: 1.5; max-width: 200px; text-align: center;"><span class="nodeLabel "><p>LLM Analysis Agent<br />Ollama llama3.1:8b, RAG</p></span></div></foreignObject></g></g><g class="node default  " id="flowchart-MAP-15" transform="translate(1803.69140625, 1658)"><rect class="basic label-container" style="" x="-130" y="-51" width="260" height="102"/><g class="label" style="" transform="translate(-100, -36)"><rect/><foreignObject width="200" height="72"><div xmlns="http://www.w3.org/1999/xhtml" style="display: table; white-space: break-spaces; line-height: 1.5; max-width: 200px; text-align: center; width: 200px;"><span class="nodeLabel "><p>Misappropriation Mapping &amp; Scoring<br />deterministic ACFE anchor</p></span></div></foreignObject></g></g><g class="node default  " id="flowchart-CCW-16" transform="translate(2103.95703125, 1658)"><rect class="basic label-container" style="" x="-120.265625" y="-39" width="240.53125" height="78"/><g class="label" style="" transform="translate(-90.265625, -24)"><rect/><foreignObject width="180.53125" height="48"><div xmlns="http://www.w3.org/1999/xhtml" style="display: table-cell; white-space: nowrap; line-height: 1.5; max-width: 200px; text-align: center;"><span class="nodeLabel "><p>Credit-Card Watch Agent<br />personal-use / structuring</p></span></div></foreignObject></g></g><g class="node default  " id="flowchart-MW-17" transform="translate(1703.3984375, 1810)"><rect class="basic label-container" style="" x="-130" y="-51" width="260" height="102"/><g class="label" style="" transform="translate(-100, -36)"><rect/><foreignObject width="200" height="72"><div xmlns="http://www.w3.org/1999/xhtml" style="display: table; white-space: break-spaces; line-height: 1.5; max-width: 200px; text-align: center; width: 200px;"><span class="nodeLabel "><p>Management Warning Agent<br />HIGH / MEDIUM / LOW</p></span></div></foreignObject></g></g><g class="node default  " id="flowchart-FRP-18" transform="translate(1703.3984375, 1975)"><rect class="basic label-container" style="" x="-130" y="-39" width="260" height="78"/><g class="label" style="" transform="translate(-100, -24)"><rect/><foreignObject width="200" height="48"><div xmlns="http://www.w3.org/1999/xhtml" style="display: table; white-space: break-spaces; line-height: 1.5; max-width: 200px; text-align: center; width: 200px;"><span class="nodeLabel "><p>FRP — Dashboard / Email Alerts</p></span></div></foreignObject></g></g></g></g></g></svg>