<?xml version="1.0" encoding="UTF-8" standalone="no"?>
<!DOCTYPE svg PUBLIC "-//W3C//DTD SVG 1.1//EN"
 "http://www.w3.org/Graphics/SVG/1.1/DTD/svg11.dtd">
<!-- Generated by graphviz version 15.0.0 (20260523.1842)
 -->
<!-- Title: NGAME_Fig7A Pages: 1 -->
<svg width="549pt" height="773pt"
 viewBox="0.00 0.00 549.00 773.00" xmlns="http://www.w3.org/2000/svg" xmlns:xlink="http://www.w3.org/1999/xlink">
<g id="graph0" class="graph" transform="scale(1 1) rotate(0) translate(10.8 762.35)">
<title>NGAME_Fig7A</title>
<polygon fill="white" stroke="none" points="-10.8,10.8 -10.8,-762.35 538.09,-762.35 538.09,10.8 -10.8,10.8"/>
<!-- S1 -->
<g id="node1" class="node">
<title>S1</title>
<path fill="#fff3cd" stroke="#c9a227" d="M156.54,-751.55C156.54,-751.55 12,-751.55 12,-751.55 6,-751.55 0,-745.55 0,-739.55 0,-739.55 0,-719.15 0,-719.15 0,-713.15 6,-707.15 12,-707.15 12,-707.15 156.54,-707.15 156.54,-707.15 162.54,-707.15 168.54,-713.15 168.54,-719.15 168.54,-719.15 168.54,-739.55 168.54,-739.55 168.54,-745.55 162.54,-751.55 156.54,-751.55"/>
<text xml:space="preserve" text-anchor="middle" x="84.27" y="-731.05" font-family="Helvetica,sans-Serif" font-size="14.00">Step 1 &#45; End of workday</text>
<text xml:space="preserve" text-anchor="middle" x="84.27" y="-716.05" font-family="Helvetica,sans-Serif" font-size="14.00">(bookkeeper signed out)</text>
</g>
<!-- DE -->
<g id="node2" class="node">
<title>DE</title>
<path fill="#ececff" stroke="#5c5c99" d="M265.91,-666.4C265.91,-666.4 84.62,-666.4 84.62,-666.4 78.62,-666.4 72.62,-660.4 72.62,-654.4 72.62,-654.4 72.62,-634 72.62,-634 72.62,-628 78.62,-622 84.62,-622 84.62,-622 265.91,-622 265.91,-622 271.91,-622 277.91,-628 277.91,-634 277.91,-634 277.91,-654.4 277.91,-654.4 277.91,-660.4 271.91,-666.4 265.91,-666.4"/>
<text xml:space="preserve" text-anchor="middle" x="175.27" y="-645.9" font-family="Helvetica,sans-Serif" font-size="14.00">Step 2 &#45; Data Extraction Agent</text>
<text xml:space="preserve" text-anchor="middle" x="175.27" y="-630.9" font-family="Helvetica,sans-Serif" font-size="14.00">QBO &#45;&gt; Today.ttl (18 types)</text>
</g>
<!-- S1&#45;&gt;DE -->
<g id="edge1" class="edge">
<title>S1&#45;&gt;DE</title>
<path fill="none" stroke="#444444" d="M107.7,-706.94C118.97,-696.64 132.63,-684.16 144.7,-673.13"/>
<polygon fill="#444444" stroke="#444444" points="146.46,-675.31 150.48,-667.85 142.69,-671.18 146.46,-675.31"/>
</g>
<!-- CCW -->
<g id="node4" class="node">
<title>CCW</title>
<path fill="#ececff" stroke="#5c5c99" d="M239.54,-519.6C239.54,-519.6 71,-519.6 71,-519.6 65,-519.6 59,-513.6 59,-507.6 59,-507.6 59,-472.2 59,-472.2 59,-466.2 65,-460.2 71,-460.2 71,-460.2 239.54,-460.2 239.54,-460.2 245.54,-460.2 251.54,-466.2 251.54,-472.2 251.54,-472.2 251.54,-507.6 251.54,-507.6 251.54,-513.6 245.54,-519.6 239.54,-519.6"/>
<text xml:space="preserve" text-anchor="middle" x="155.27" y="-499.1" font-family="Helvetica,sans-Serif" font-size="14.00">Step 2c &#45; Credit&#45;Card Watch</text>
<text xml:space="preserve" text-anchor="middle" x="155.27" y="-484.1" font-family="Helvetica,sans-Serif" font-size="14.00">personal&#45;use / structuring</text>
<text xml:space="preserve" text-anchor="middle" x="155.27" y="-469.1" font-family="Helvetica,sans-Serif" font-size="14.00">(independent of matrix)</text>
</g>
<!-- DE&#45;&gt;CCW -->
<g id="edge3" class="edge">
<title>DE&#45;&gt;CCW</title>
<path fill="none" stroke="#444444" d="M172.45,-621.7C169.29,-597.66 164.11,-558.24 160.27,-528.96"/>
<polygon fill="#444444" stroke="#444444" points="163.08,-528.9 159.27,-521.34 157.53,-529.63 163.08,-528.9"/>
</g>
<!-- CPI -->
<g id="node5" class="node">
<title>CPI</title>
<path fill="#ececff" stroke="#5c5c99" d="M386.79,-593C386.79,-593 213.75,-593 213.75,-593 207.75,-593 201.75,-587 201.75,-581 201.75,-581 201.75,-545.6 201.75,-545.6 201.75,-539.6 207.75,-533.6 213.75,-533.6 213.75,-533.6 386.79,-533.6 386.79,-533.6 392.79,-533.6 398.79,-539.6 398.79,-545.6 398.79,-545.6 398.79,-581 398.79,-581 398.79,-587 392.79,-593 386.79,-593"/>
<text xml:space="preserve" text-anchor="middle" x="300.27" y="-572.5" font-family="Helvetica,sans-Serif" font-size="14.00">Step 2 &#45; CPI Analysis Agent</text>
<text xml:space="preserve" text-anchor="middle" x="300.27" y="-557.5" font-family="Helvetica,sans-Serif" font-size="14.00">Jaccard CPI array (18)</text>
<text xml:space="preserve" text-anchor="middle" x="300.27" y="-542.5" font-family="Helvetica,sans-Serif" font-size="14.00">+ dollar&#45;weighted wCPI array</text>
</g>
<!-- DE&#45;&gt;CPI -->
<g id="edge4" class="edge">
<title>DE&#45;&gt;CPI</title>
<path fill="none" stroke="#444444" d="M209.43,-621.64C220.92,-614.39 234.04,-606.11 246.66,-598.14"/>
<polygon fill="#444444" stroke="#444444" points="247.88,-600.68 253.15,-594.04 244.89,-595.94 247.88,-600.68"/>
</g>
<!-- INJ -->
<g id="node3" class="node">
<title>INJ</title>
<path fill="#ececff" stroke="#5c5c99" d="M332.41,-751.55C332.41,-751.55 202.12,-751.55 202.12,-751.55 196.12,-751.55 190.12,-745.55 190.12,-739.55 190.12,-739.55 190.12,-719.15 190.12,-719.15 190.12,-713.15 196.12,-707.15 202.12,-707.15 202.12,-707.15 332.41,-707.15 332.41,-707.15 338.41,-707.15 344.41,-713.15 344.41,-719.15 344.41,-719.15 344.41,-739.55 344.41,-739.55 344.41,-745.55 338.41,-751.55 332.41,-751.55"/>
<text xml:space="preserve" text-anchor="middle" x="267.27" y="-731.05" font-family="Helvetica,sans-Serif" font-size="14.00">Anomaly Injection</text>
<text xml:space="preserve" text-anchor="middle" x="267.27" y="-716.05" font-family="Helvetica,sans-Serif" font-size="14.00">(optional, demo / test)</text>
</g>
<!-- INJ&#45;&gt;DE -->
<g id="edge2" class="edge">
<title>INJ&#45;&gt;DE</title>
<path fill="none" stroke="#444444" stroke-dasharray="5,2" d="M243.58,-706.94C232.18,-696.64 218.38,-684.16 206.17,-673.13"/>
<polygon fill="#444444" stroke="#444444" points="208.14,-671.13 200.32,-667.84 204.38,-675.29 208.14,-671.13"/>
<text xml:space="preserve" text-anchor="middle" x="236.15" y="-681.75" font-family="Helvetica,sans-Serif" font-size="12.00">test</text>
</g>
<!-- TOB -->
<g id="node11" class="node">
<title>TOB</title>
<path fill="#e8e8e8" stroke="#888888" stroke-dasharray="5,2" d="M268.54,-44.4C268.54,-44.4 46,-44.4 46,-44.4 40,-44.4 34,-38.4 34,-32.4 34,-32.4 34,-12 34,-12 34,-6 40,0 46,0 46,0 268.54,0 268.54,0 274.54,0 280.54,-6 280.54,-12 280.54,-12 280.54,-32.4 280.54,-32.4 280.54,-38.4 274.54,-44.4 268.54,-44.4"/>
<text xml:space="preserve" text-anchor="middle" x="157.27" y="-23.9" font-family="Helvetica,sans-Serif" font-size="14.00">To Panel B (Interpretation &amp; Alerting):</text>
<text xml:space="preserve" text-anchor="middle" x="157.27" y="-8.9" font-family="Helvetica,sans-Serif" font-size="14.00">top&#45;3 anomalies + credit&#45;card flags</text>
</g>
<!-- CCW&#45;&gt;TOB -->
<g id="edge12" class="edge">
<title>CCW&#45;&gt;TOB</title>
<path fill="none" stroke="#444444" d="M151.51,-459.82C147.99,-432.64 143.27,-396.2 143.27,-396.2 143.27,-396.2 143.27,-396.2 143.27,-90.4 143.27,-90.4 147.19,-71.6 150.88,-53.89"/>
<polygon fill="#444444" stroke="#444444" points="153.56,-54.72 152.45,-46.31 148.08,-53.57 153.56,-54.72"/>
</g>
<!-- BUF -->
<g id="node6" class="node">
<title>BUF</title>
<path fill="#ececff" stroke="#5c5c99" d="M385.29,-446.2C385.29,-446.2 215.25,-446.2 215.25,-446.2 209.25,-446.2 203.25,-440.2 203.25,-434.2 203.25,-434.2 203.25,-422.2 203.25,-422.2 203.25,-416.2 209.25,-410.2 215.25,-410.2 215.25,-410.2 385.29,-410.2 385.29,-410.2 391.29,-410.2 397.29,-416.2 397.29,-422.2 397.29,-422.2 397.29,-434.2 397.29,-434.2 397.29,-440.2 391.29,-446.2 385.29,-446.2"/>
<text xml:space="preserve" text-anchor="middle" x="300.27" y="-422.4" font-family="Helvetica,sans-Serif" font-size="14.00">append to CPI Rolling Buffer</text>
</g>
<!-- CPI&#45;&gt;BUF -->
<g id="edge5" class="edge">
<title>CPI&#45;&gt;BUF</title>
<path fill="none" stroke="#444444" d="M300.27,-533.42C300.27,-510.38 300.27,-478.35 300.27,-455.9"/>
<polygon fill="#444444" stroke="#444444" points="303.07,-456.13 300.27,-448.13 297.47,-456.13 303.07,-456.13"/>
</g>
<!-- CC -->
<g id="node8" class="node">
<title>CC</title>
<path fill="#ececff" stroke="#5c5c99" d="M515.29,-277.8C515.29,-277.8 189.25,-277.8 189.25,-277.8 183.25,-277.8 177.25,-271.8 177.25,-265.8 177.25,-265.8 177.25,-215.4 177.25,-215.4 177.25,-209.4 183.25,-203.4 189.25,-203.4 189.25,-203.4 515.29,-203.4 515.29,-203.4 521.29,-203.4 527.29,-209.4 527.29,-215.4 527.29,-215.4 527.29,-265.8 527.29,-265.8 527.29,-271.8 521.29,-277.8 515.29,-277.8"/>
<text xml:space="preserve" text-anchor="middle" x="352.27" y="-257.3" font-family="Helvetica,sans-Serif" font-size="14.00">Step 3 &#45; Churn Comparison</text>
<text xml:space="preserve" text-anchor="middle" x="352.27" y="-242.3" font-family="Helvetica,sans-Serif" font-size="14.00">z = (today &#45; mean) / std vs Training Matrix</text>
<text xml:space="preserve" text-anchor="middle" x="352.27" y="-227.3" font-family="Helvetica,sans-Serif" font-size="14.00">dollar z = (wCPI &#45; mean_w) / std_w</text>
<text xml:space="preserve" text-anchor="middle" x="352.27" y="-212.3" font-family="Helvetica,sans-Serif" font-size="14.00">bands |z|&gt;3 HIGH, |z|&gt;2 MEDIUM &#45;&gt; composite alarm</text>
</g>
<!-- CPI&#45;&gt;CC -->
<g id="edge7" class="edge">
<title>CPI&#45;&gt;CC</title>
<path fill="none" stroke="#444444" d="M327.24,-533.3C359.23,-498.91 408.27,-446.2 408.27,-446.2 408.27,-446.2 434.27,-381.2 434.27,-381.2 434.27,-381.2 434.27,-306.8 434.27,-306.8 434.27,-306.8 421.17,-296.38 405.44,-283.88"/>
<polygon fill="#444444" stroke="#444444" points="407.25,-281.74 399.25,-278.95 403.77,-286.13 407.25,-281.74"/>
</g>
<!-- SCPI -->
<g id="node7" class="node">
<title>SCPI</title>
<path fill="#ececff" stroke="#5c5c99" d="M410.79,-381.2C410.79,-381.2 189.75,-381.2 189.75,-381.2 183.75,-381.2 177.75,-375.2 177.75,-369.2 177.75,-369.2 177.75,-318.8 177.75,-318.8 177.75,-312.8 183.75,-306.8 189.75,-306.8 189.75,-306.8 410.79,-306.8 410.79,-306.8 416.79,-306.8 422.79,-312.8 422.79,-318.8 422.79,-318.8 422.79,-369.2 422.79,-369.2 422.79,-375.2 416.79,-381.2 410.79,-381.2"/>
<text xml:space="preserve" text-anchor="middle" x="300.27" y="-360.7" font-family="Helvetica,sans-Serif" font-size="14.00">Step 2b &#45; Sequence CPI (SCPI)</text>
<text xml:space="preserve" text-anchor="middle" x="300.27" y="-345.7" font-family="Helvetica,sans-Serif" font-size="14.00">geom&#45;mean over window L</text>
<text xml:space="preserve" text-anchor="middle" x="300.27" y="-330.7" font-family="Helvetica,sans-Serif" font-size="14.00">z_seq = (SCPI &#45; mean) / (std / sqrt L)</text>
<text xml:space="preserve" text-anchor="middle" x="300.27" y="-315.7" font-family="Helvetica,sans-Serif" font-size="14.00">active when buffer &gt;= L</text>
</g>
<!-- BUF&#45;&gt;SCPI -->
<g id="edge6" class="edge">
<title>BUF&#45;&gt;SCPI</title>
<path fill="none" stroke="#444444" d="M300.27,-409.77C300.27,-404.13 300.27,-397.59 300.27,-390.88"/>
<polygon fill="#444444" stroke="#444444" points="303.07,-391.2 300.27,-383.2 297.47,-391.2 303.07,-391.2"/>
</g>
<!-- SCPI&#45;&gt;CC -->
<g id="edge8" class="edge">
<title>SCPI&#45;&gt;CC</title>
<path fill="none" stroke="#444444" d="M319.04,-306.39C322.36,-299.93 325.84,-293.14 329.25,-286.48"/>
<polygon fill="#444444" stroke="#444444" points="331.67,-287.9 332.83,-279.5 326.69,-285.34 331.67,-287.9"/>
</g>
<!-- RANK -->
<g id="node9" class="node">
<title>RANK</title>
<path fill="#ececff" stroke="#5c5c99" d="M422.79,-174.4C422.79,-174.4 267.75,-174.4 267.75,-174.4 261.75,-174.4 255.75,-168.4 255.75,-162.4 255.75,-162.4 255.75,-150.4 255.75,-150.4 255.75,-144.4 261.75,-138.4 267.75,-138.4 267.75,-138.4 422.79,-138.4 422.79,-138.4 428.79,-138.4 434.79,-144.4 434.79,-150.4 434.79,-150.4 434.79,-162.4 434.79,-162.4 434.79,-168.4 428.79,-174.4 422.79,-174.4"/>
<text xml:space="preserve" text-anchor="middle" x="345.27" y="-150.6" font-family="Helvetica,sans-Serif" font-size="14.00">Step 4 &#45; Rank by |z&#45;score|</text>
</g>
<!-- CC&#45;&gt;RANK -->
<g id="edge9" class="edge">
<title>CC&#45;&gt;RANK</title>
<path fill="none" stroke="#444444" d="M349.18,-203.31C348.62,-196.76 348.05,-190.05 347.52,-183.84"/>
<polygon fill="#444444" stroke="#444444" points="350.33,-183.86 346.86,-176.13 344.75,-184.34 350.33,-183.86"/>
</g>
<!-- AID -->
<g id="node10" class="node">
<title>AID</title>
<path fill="#ececff" stroke="#5c5c99" d="M435.41,-109.4C435.41,-109.4 215.12,-109.4 215.12,-109.4 209.12,-109.4 203.12,-103.4 203.12,-97.4 203.12,-97.4 203.12,-85.4 203.12,-85.4 203.12,-79.4 209.12,-73.4 215.12,-73.4 215.12,-73.4 435.41,-73.4 435.41,-73.4 441.41,-73.4 447.41,-79.4 447.41,-85.4 447.41,-85.4 447.41,-97.4 447.41,-97.4 447.41,-103.4 441.41,-109.4 435.41,-109.4"/>
<text xml:space="preserve" text-anchor="middle" x="325.27" y="-85.6" font-family="Helvetica,sans-Serif" font-size="14.00">Step 5 &#45; Top&#45;3 Anomaly Identification</text>
</g>
<!-- RANK&#45;&gt;AID -->
<g id="edge10" class="edge">
<title>RANK&#45;&gt;AID</title>
<path fill="none" stroke="#444444" d="M339.8,-138.18C337.86,-132.07 335.64,-125.05 333.52,-118.37"/>
<polygon fill="#444444" stroke="#444444" points="336.28,-117.81 331.19,-111.04 330.94,-119.51 336.28,-117.81"/>
</g>
<!-- AID&#45;&gt;TOB -->
<g id="edge11" class="edge">
<title>AID&#45;&gt;TOB</title>
<path fill="none" stroke="#444444" d="M281.57,-72.92C262.77,-65.4 240.44,-56.47 219.93,-48.26"/>
<polygon fill="#444444" stroke="#444444" points="221.14,-45.73 212.67,-45.36 219.06,-50.93 221.14,-45.73"/>
</g>
</g>
</svg>
