<?xml version="1.0" encoding="UTF-8" standalone="no"?>
<!DOCTYPE svg PUBLIC "-//W3C//DTD SVG 1.1//EN"
 "http://www.w3.org/Graphics/SVG/1.1/DTD/svg11.dtd">
<!-- Generated by graphviz version 15.0.0 (20260523.1842)
 -->
<!-- Title: NGAME_Fig7B Pages: 1 -->
<svg width="565pt" height="373pt"
 viewBox="0.00 0.00 565.00 373.00" xmlns="http://www.w3.org/2000/svg" xmlns:xlink="http://www.w3.org/1999/xlink">
<g id="graph0" class="graph" transform="scale(1 1) rotate(0) translate(10.8 362.4)">
<title>NGAME_Fig7B</title>
<polygon fill="white" stroke="none" points="-10.8,10.8 -10.8,-362.4 554.21,-362.4 554.21,10.8 -10.8,10.8"/>
<!-- FROMA -->
<g id="node1" class="node">
<title>FROMA</title>
<path fill="#e8e8e8" stroke="#888888" stroke-dasharray="5,2" d="M252.79,-351.6C252.79,-351.6 157,-351.6 157,-351.6 151,-351.6 145,-345.6 145,-339.6 145,-339.6 145,-319.2 145,-319.2 145,-313.2 151,-307.2 157,-307.2 157,-307.2 252.79,-307.2 252.79,-307.2 258.79,-307.2 264.79,-313.2 264.79,-319.2 264.79,-319.2 264.79,-339.6 264.79,-339.6 264.79,-345.6 258.79,-351.6 252.79,-351.6"/>
<text xml:space="preserve" text-anchor="middle" x="204.89" y="-331.1" font-family="Helvetica,sans-Serif" font-size="14.00">From Panel A:</text>
<text xml:space="preserve" text-anchor="middle" x="204.89" y="-316.1" font-family="Helvetica,sans-Serif" font-size="14.00">top&#45;3 anomalies</text>
</g>
<!-- AM -->
<g id="node3" class="node">
<title>AM</title>
<path fill="#ececff" stroke="#5c5c99" d="M301.54,-280.2C301.54,-280.2 108.25,-280.2 108.25,-280.2 102.25,-280.2 96.25,-274.2 96.25,-268.2 96.25,-268.2 96.25,-247.8 96.25,-247.8 96.25,-241.8 102.25,-235.8 108.25,-235.8 108.25,-235.8 301.54,-235.8 301.54,-235.8 307.54,-235.8 313.54,-241.8 313.54,-247.8 313.54,-247.8 313.54,-268.2 313.54,-268.2 313.54,-274.2 307.54,-280.2 301.54,-280.2"/>
<text xml:space="preserve" text-anchor="middle" x="204.89" y="-259.7" font-family="Helvetica,sans-Serif" font-size="14.00">Account Mapping</text>
<text xml:space="preserve" text-anchor="middle" x="204.89" y="-244.7" font-family="Helvetica,sans-Serif" font-size="14.00">top&#45;3 types &#45;&gt; Chart of Accounts</text>
</g>
<!-- FROMA&#45;&gt;AM -->
<g id="edge1" class="edge">
<title>FROMA&#45;&gt;AM</title>
<path fill="none" stroke="#444444" d="M204.89,-306.82C204.89,-301.42 204.89,-295.52 204.89,-289.76"/>
<polygon fill="#444444" stroke="#444444" points="207.7,-289.84 204.9,-281.84 202.1,-289.84 207.7,-289.84"/>
</g>
<!-- FROMACC -->
<g id="node2" class="node">
<title>FROMACC</title>
<path fill="#e8e8e8" stroke="#888888" stroke-dasharray="5,2" d="M531.41,-201.3C531.41,-201.3 436.38,-201.3 436.38,-201.3 430.38,-201.3 424.38,-195.3 424.38,-189.3 424.38,-189.3 424.38,-168.9 424.38,-168.9 424.38,-162.9 430.38,-156.9 436.38,-156.9 436.38,-156.9 531.41,-156.9 531.41,-156.9 537.41,-156.9 543.41,-162.9 543.41,-168.9 543.41,-168.9 543.41,-189.3 543.41,-189.3 543.41,-195.3 537.41,-201.3 531.41,-201.3"/>
<text xml:space="preserve" text-anchor="middle" x="483.89" y="-180.8" font-family="Helvetica,sans-Serif" font-size="14.00">From Panel A:</text>
<text xml:space="preserve" text-anchor="middle" x="483.89" y="-165.8" font-family="Helvetica,sans-Serif" font-size="14.00">credit&#45;card flags</text>
</g>
<!-- MW -->
<g id="node6" class="node">
<title>MW</title>
<path fill="#ececff" stroke="#5c5c99" d="M403.04,-122.4C403.04,-122.4 218.75,-122.4 218.75,-122.4 212.75,-122.4 206.75,-116.4 206.75,-110.4 206.75,-110.4 206.75,-75 206.75,-75 206.75,-69 212.75,-63 218.75,-63 218.75,-63 403.04,-63 403.04,-63 409.04,-63 415.04,-69 415.04,-75 415.04,-75 415.04,-110.4 415.04,-110.4 415.04,-116.4 409.04,-122.4 403.04,-122.4"/>
<text xml:space="preserve" text-anchor="middle" x="310.89" y="-101.9" font-family="Helvetica,sans-Serif" font-size="14.00">Step 7 &#45; Management Warning</text>
<text xml:space="preserve" text-anchor="middle" x="310.89" y="-86.9" font-family="Helvetica,sans-Serif" font-size="14.00">risk level + confidence</text>
<text xml:space="preserve" text-anchor="middle" x="310.89" y="-71.9" font-family="Helvetica,sans-Serif" font-size="14.00">dashboard / email</text>
</g>
<!-- FROMACC&#45;&gt;MW -->
<g id="edge6" class="edge">
<title>FROMACC&#45;&gt;MW</title>
<path fill="none" stroke="#444444" d="M439.79,-156.58C421.32,-147.57 399.41,-136.88 378.95,-126.9"/>
<polygon fill="#444444" stroke="#444444" points="380.36,-124.48 371.95,-123.48 377.91,-129.51 380.36,-124.48"/>
</g>
<!-- LLM -->
<g id="node4" class="node">
<title>LLM</title>
<path fill="#ececff" stroke="#5c5c99" d="M185.79,-208.8C185.79,-208.8 12,-208.8 12,-208.8 6,-208.8 0,-202.8 0,-196.8 0,-196.8 0,-161.4 0,-161.4 0,-155.4 6,-149.4 12,-149.4 12,-149.4 185.79,-149.4 185.79,-149.4 191.79,-149.4 197.79,-155.4 197.79,-161.4 197.79,-161.4 197.79,-196.8 197.79,-196.8 197.79,-202.8 191.79,-208.8 185.79,-208.8"/>
<text xml:space="preserve" text-anchor="middle" x="98.89" y="-188.3" font-family="Helvetica,sans-Serif" font-size="14.00">Step 6 &#45; LLM Analysis (RAG)</text>
<text xml:space="preserve" text-anchor="middle" x="98.89" y="-173.3" font-family="Helvetica,sans-Serif" font-size="14.00">Ollama llama3.1:8b +</text>
<text xml:space="preserve" text-anchor="middle" x="98.89" y="-158.3" font-family="Helvetica,sans-Serif" font-size="14.00">Asset_Misappropriation.ttl</text>
</g>
<!-- AM&#45;&gt;LLM -->
<g id="edge2" class="edge">
<title>AM&#45;&gt;LLM</title>
<path fill="none" stroke="#444444" d="M175.09,-235.37C166.11,-228.86 156.02,-221.54 146.2,-214.42"/>
<polygon fill="#444444" stroke="#444444" points="148.11,-212.35 139.99,-209.91 144.82,-216.88 148.11,-212.35"/>
</g>
<!-- MAP -->
<g id="node5" class="node">
<title>MAP</title>
<path fill="#ececff" stroke="#5c5c99" d="M389.91,-208.8C389.91,-208.8 231.88,-208.8 231.88,-208.8 225.88,-208.8 219.88,-202.8 219.88,-196.8 219.88,-196.8 219.88,-161.4 219.88,-161.4 219.88,-155.4 225.88,-149.4 231.88,-149.4 231.88,-149.4 389.91,-149.4 389.91,-149.4 395.91,-149.4 401.91,-155.4 401.91,-161.4 401.91,-161.4 401.91,-196.8 401.91,-196.8 401.91,-202.8 395.91,-208.8 389.91,-208.8"/>
<text xml:space="preserve" text-anchor="middle" x="310.89" y="-188.3" font-family="Helvetica,sans-Serif" font-size="14.00">Deterministic anchor</text>
<text xml:space="preserve" text-anchor="middle" x="310.89" y="-173.3" font-family="Helvetica,sans-Serif" font-size="14.00">ACFE scheme priors</text>
<text xml:space="preserve" text-anchor="middle" x="310.89" y="-158.3" font-family="Helvetica,sans-Serif" font-size="14.00">(reproducible cross&#45;check)</text>
</g>
<!-- AM&#45;&gt;MAP -->
<g id="edge3" class="edge">
<title>AM&#45;&gt;MAP</title>
<path fill="none" stroke="#444444" d="M234.7,-235.37C243.68,-228.86 253.77,-221.54 263.59,-214.42"/>
<polygon fill="#444444" stroke="#444444" points="264.97,-216.88 269.8,-209.91 261.68,-212.35 264.97,-216.88"/>
</g>
<!-- LLM&#45;&gt;MW -->
<g id="edge4" class="edge">
<title>LLM&#45;&gt;MW</title>
<path fill="none" stroke="#444444" d="M172.15,-148.94C190.44,-141.66 210.17,-133.8 228.85,-126.36"/>
<polygon fill="#444444" stroke="#444444" points="229.83,-128.99 236.23,-123.42 227.76,-123.78 229.83,-128.99"/>
</g>
<!-- MAP&#45;&gt;MW -->
<g id="edge5" class="edge">
<title>MAP&#45;&gt;MW</title>
<path fill="none" stroke="#444444" d="M310.89,-149.05C310.89,-143.62 310.89,-137.86 310.89,-132.18"/>
<polygon fill="#444444" stroke="#444444" points="313.7,-132.31 310.9,-124.31 308.1,-132.31 313.7,-132.31"/>
</g>
<!-- FRP -->
<g id="node7" class="node">
<title>FRP</title>
<path fill="#fff3cd" stroke="#c9a227" d="M325.89,-36C325.89,-36 295.89,-36 295.89,-36 289.89,-36 283.89,-30 283.89,-24 283.89,-24 283.89,-12 283.89,-12 283.89,-6 289.89,0 295.89,0 295.89,0 325.89,0 325.89,0 331.89,0 337.89,-6 337.89,-12 337.89,-12 337.89,-24 337.89,-24 337.89,-30 331.89,-36 325.89,-36"/>
<text xml:space="preserve" text-anchor="middle" x="310.89" y="-12.2" font-family="Helvetica,sans-Serif" font-size="14.00">FRP</text>
</g>
<!-- MW&#45;&gt;FRP -->
<g id="edge7" class="edge">
<title>MW&#45;&gt;FRP</title>
<path fill="none" stroke="#444444" d="M310.89,-62.55C310.89,-57.02 310.89,-51.26 310.89,-45.8"/>
<polygon fill="#444444" stroke="#444444" points="313.7,-45.95 310.9,-37.95 308.1,-45.95 313.7,-45.95"/>
</g>
</g>
</svg>
