<?xml version="1.0" encoding="UTF-8" standalone="no"?>
<!DOCTYPE svg PUBLIC "-//W3C//DTD SVG 1.1//EN"
 "http://www.w3.org/Graphics/SVG/1.1/DTD/svg11.dtd">
<!-- Generated by graphviz version 15.0.0 (20260523.1842)
 -->
<!-- Title: NGAME_Fig7 Pages: 1 -->
<svg width="601pt" height="1015pt"
 viewBox="0.00 0.00 601.00 1015.00" xmlns="http://www.w3.org/2000/svg" xmlns:xlink="http://www.w3.org/1999/xlink">
<g id="graph0" class="graph" transform="scale(1 1) rotate(0) translate(10.8 1004.15)">
<title>NGAME_Fig7</title>
<polygon fill="white" stroke="none" points="-10.8,10.8 -10.8,-1004.15 590.09,-1004.15 590.09,10.8 -10.8,10.8"/>
<!-- S1 -->
<g id="node1" class="node">
<title>S1</title>
<path fill="#fff3cd" stroke="#c9a227" d="M156.54,-993.35C156.54,-993.35 12,-993.35 12,-993.35 6,-993.35 0,-987.35 0,-981.35 0,-981.35 0,-960.95 0,-960.95 0,-954.95 6,-948.95 12,-948.95 12,-948.95 156.54,-948.95 156.54,-948.95 162.54,-948.95 168.54,-954.95 168.54,-960.95 168.54,-960.95 168.54,-981.35 168.54,-981.35 168.54,-987.35 162.54,-993.35 156.54,-993.35"/>
<text xml:space="preserve" text-anchor="middle" x="84.27" y="-972.85" font-family="Helvetica,sans-Serif" font-size="14.00">Step 1 &#45; End of workday</text>
<text xml:space="preserve" text-anchor="middle" x="84.27" y="-957.85" font-family="Helvetica,sans-Serif" font-size="14.00">(bookkeeper signed out)</text>
</g>
<!-- DE -->
<g id="node2" class="node">
<title>DE</title>
<path fill="#ececff" stroke="#5c5c99" d="M265.91,-908.2C265.91,-908.2 84.62,-908.2 84.62,-908.2 78.62,-908.2 72.62,-902.2 72.62,-896.2 72.62,-896.2 72.62,-875.8 72.62,-875.8 72.62,-869.8 78.62,-863.8 84.62,-863.8 84.62,-863.8 265.91,-863.8 265.91,-863.8 271.91,-863.8 277.91,-869.8 277.91,-875.8 277.91,-875.8 277.91,-896.2 277.91,-896.2 277.91,-902.2 271.91,-908.2 265.91,-908.2"/>
<text xml:space="preserve" text-anchor="middle" x="175.27" y="-887.7" font-family="Helvetica,sans-Serif" font-size="14.00">Step 2 &#45; Data Extraction Agent</text>
<text xml:space="preserve" text-anchor="middle" x="175.27" y="-872.7" font-family="Helvetica,sans-Serif" font-size="14.00">QBO &#45;&gt; Today.ttl (18 types)</text>
</g>
<!-- S1&#45;&gt;DE -->
<g id="edge1" class="edge">
<title>S1&#45;&gt;DE</title>
<path fill="none" stroke="#444444" d="M107.7,-948.74C118.97,-938.44 132.63,-925.96 144.7,-914.93"/>
<polygon fill="#444444" stroke="#444444" points="146.46,-917.11 150.48,-909.65 142.69,-912.98 146.46,-917.11"/>
</g>
<!-- CCW -->
<g id="node4" class="node">
<title>CCW</title>
<path fill="#ececff" stroke="#5c5c99" d="M239.54,-761.4C239.54,-761.4 71,-761.4 71,-761.4 65,-761.4 59,-755.4 59,-749.4 59,-749.4 59,-714 59,-714 59,-708 65,-702 71,-702 71,-702 239.54,-702 239.54,-702 245.54,-702 251.54,-708 251.54,-714 251.54,-714 251.54,-749.4 251.54,-749.4 251.54,-755.4 245.54,-761.4 239.54,-761.4"/>
<text xml:space="preserve" text-anchor="middle" x="155.27" y="-740.9" font-family="Helvetica,sans-Serif" font-size="14.00">Step 2c &#45; Credit&#45;Card Watch</text>
<text xml:space="preserve" text-anchor="middle" x="155.27" y="-725.9" font-family="Helvetica,sans-Serif" font-size="14.00">personal&#45;use / structuring</text>
<text xml:space="preserve" text-anchor="middle" x="155.27" y="-710.9" font-family="Helvetica,sans-Serif" font-size="14.00">(independent of matrix)</text>
</g>
<!-- DE&#45;&gt;CCW -->
<g id="edge3" class="edge">
<title>DE&#45;&gt;CCW</title>
<path fill="none" stroke="#444444" d="M172.45,-863.5C169.29,-839.46 164.11,-800.04 160.27,-770.76"/>
<polygon fill="#444444" stroke="#444444" points="163.08,-770.7 159.27,-763.14 157.53,-771.43 163.08,-770.7"/>
</g>
<!-- CPI -->
<g id="node5" class="node">
<title>CPI</title>
<path fill="#ececff" stroke="#5c5c99" d="M386.79,-834.8C386.79,-834.8 213.75,-834.8 213.75,-834.8 207.75,-834.8 201.75,-828.8 201.75,-822.8 201.75,-822.8 201.75,-787.4 201.75,-787.4 201.75,-781.4 207.75,-775.4 213.75,-775.4 213.75,-775.4 386.79,-775.4 386.79,-775.4 392.79,-775.4 398.79,-781.4 398.79,-787.4 398.79,-787.4 398.79,-822.8 398.79,-822.8 398.79,-828.8 392.79,-834.8 386.79,-834.8"/>
<text xml:space="preserve" text-anchor="middle" x="300.27" y="-814.3" font-family="Helvetica,sans-Serif" font-size="14.00">Step 2 &#45; CPI Analysis Agent</text>
<text xml:space="preserve" text-anchor="middle" x="300.27" y="-799.3" font-family="Helvetica,sans-Serif" font-size="14.00">Jaccard CPI array (18)</text>
<text xml:space="preserve" text-anchor="middle" x="300.27" y="-784.3" font-family="Helvetica,sans-Serif" font-size="14.00">+ dollar&#45;weighted wCPI array</text>
</g>
<!-- DE&#45;&gt;CPI -->
<g id="edge4" class="edge">
<title>DE&#45;&gt;CPI</title>
<path fill="none" stroke="#444444" d="M209.43,-863.44C220.92,-856.19 234.04,-847.91 246.66,-839.94"/>
<polygon fill="#444444" stroke="#444444" points="247.88,-842.48 253.15,-835.84 244.89,-837.74 247.88,-842.48"/>
</g>
<!-- INJ -->
<g id="node3" class="node">
<title>INJ</title>
<path fill="#ececff" stroke="#5c5c99" d="M332.41,-993.35C332.41,-993.35 202.12,-993.35 202.12,-993.35 196.12,-993.35 190.12,-987.35 190.12,-981.35 190.12,-981.35 190.12,-960.95 190.12,-960.95 190.12,-954.95 196.12,-948.95 202.12,-948.95 202.12,-948.95 332.41,-948.95 332.41,-948.95 338.41,-948.95 344.41,-954.95 344.41,-960.95 344.41,-960.95 344.41,-981.35 344.41,-981.35 344.41,-987.35 338.41,-993.35 332.41,-993.35"/>
<text xml:space="preserve" text-anchor="middle" x="267.27" y="-972.85" font-family="Helvetica,sans-Serif" font-size="14.00">Anomaly Injection</text>
<text xml:space="preserve" text-anchor="middle" x="267.27" y="-957.85" font-family="Helvetica,sans-Serif" font-size="14.00">(optional, demo / test)</text>
</g>
<!-- INJ&#45;&gt;DE -->
<g id="edge2" class="edge">
<title>INJ&#45;&gt;DE</title>
<path fill="none" stroke="#444444" stroke-dasharray="5,2" d="M243.58,-948.74C232.18,-938.44 218.38,-925.96 206.17,-914.93"/>
<polygon fill="#444444" stroke="#444444" points="208.14,-912.93 200.32,-909.64 204.38,-917.09 208.14,-912.93"/>
<text xml:space="preserve" text-anchor="middle" x="236.15" y="-923.55" font-family="Helvetica,sans-Serif" font-size="12.00">test</text>
</g>
<!-- MW -->
<g id="node14" class="node">
<title>MW</title>
<path fill="#ececff" stroke="#5c5c99" d="M368.41,-124.4C368.41,-124.4 184.12,-124.4 184.12,-124.4 178.12,-124.4 172.12,-118.4 172.12,-112.4 172.12,-112.4 172.12,-77 172.12,-77 172.12,-71 178.12,-65 184.12,-65 184.12,-65 368.41,-65 368.41,-65 374.41,-65 380.41,-71 380.41,-77 380.41,-77 380.41,-112.4 380.41,-112.4 380.41,-118.4 374.41,-124.4 368.41,-124.4"/>
<text xml:space="preserve" text-anchor="middle" x="276.27" y="-103.9" font-family="Helvetica,sans-Serif" font-size="14.00">Step 7 &#45; Management Warning</text>
<text xml:space="preserve" text-anchor="middle" x="276.27" y="-88.9" font-family="Helvetica,sans-Serif" font-size="14.00">risk level + confidence</text>
<text xml:space="preserve" text-anchor="middle" x="276.27" y="-73.9" font-family="Helvetica,sans-Serif" font-size="14.00">dashboard / email</text>
</g>
<!-- CCW&#45;&gt;MW -->
<g id="edge16" class="edge">
<title>CCW&#45;&gt;MW</title>
<path fill="none" stroke="#444444" d="M151.51,-701.62C147.99,-674.44 143.27,-638 143.27,-638 143.27,-638 143.27,-638 143.27,-182.1 143.27,-182.1 166.27,-153.4 166.27,-153.4 166.27,-153.4 188.12,-141.94 212.35,-129.23"/>
<polygon fill="#444444" stroke="#444444" points="213.5,-131.79 219.29,-125.59 210.9,-126.83 213.5,-131.79"/>
</g>
<!-- BUF -->
<g id="node6" class="node">
<title>BUF</title>
<path fill="#ececff" stroke="#5c5c99" d="M385.29,-688C385.29,-688 215.25,-688 215.25,-688 209.25,-688 203.25,-682 203.25,-676 203.25,-676 203.25,-664 203.25,-664 203.25,-658 209.25,-652 215.25,-652 215.25,-652 385.29,-652 385.29,-652 391.29,-652 397.29,-658 397.29,-664 397.29,-664 397.29,-676 397.29,-676 397.29,-682 391.29,-688 385.29,-688"/>
<text xml:space="preserve" text-anchor="middle" x="300.27" y="-664.2" font-family="Helvetica,sans-Serif" font-size="14.00">append to CPI Rolling Buffer</text>
</g>
<!-- CPI&#45;&gt;BUF -->
<g id="edge5" class="edge">
<title>CPI&#45;&gt;BUF</title>
<path fill="none" stroke="#444444" d="M300.27,-775.22C300.27,-752.18 300.27,-720.15 300.27,-697.7"/>
<polygon fill="#444444" stroke="#444444" points="303.07,-697.93 300.27,-689.93 297.47,-697.93 303.07,-697.93"/>
</g>
<!-- CC -->
<g id="node8" class="node">
<title>CC</title>
<path fill="#ececff" stroke="#5c5c99" d="M567.29,-519.6C567.29,-519.6 241.25,-519.6 241.25,-519.6 235.25,-519.6 229.25,-513.6 229.25,-507.6 229.25,-507.6 229.25,-457.2 229.25,-457.2 229.25,-451.2 235.25,-445.2 241.25,-445.2 241.25,-445.2 567.29,-445.2 567.29,-445.2 573.29,-445.2 579.29,-451.2 579.29,-457.2 579.29,-457.2 579.29,-507.6 579.29,-507.6 579.29,-513.6 573.29,-519.6 567.29,-519.6"/>
<text xml:space="preserve" text-anchor="middle" x="404.27" y="-499.1" font-family="Helvetica,sans-Serif" font-size="14.00">Step 3 &#45; Churn Comparison</text>
<text xml:space="preserve" text-anchor="middle" x="404.27" y="-484.1" font-family="Helvetica,sans-Serif" font-size="14.00">z = (today &#45; mean) / std vs Training Matrix</text>
<text xml:space="preserve" text-anchor="middle" x="404.27" y="-469.1" font-family="Helvetica,sans-Serif" font-size="14.00">dollar z = (wCPI &#45; mean_w) / std_w</text>
<text xml:space="preserve" text-anchor="middle" x="404.27" y="-454.1" font-family="Helvetica,sans-Serif" font-size="14.00">bands |z|&gt;3 HIGH, |z|&gt;2 MEDIUM &#45;&gt; composite alarm</text>
</g>
<!-- CPI&#45;&gt;CC -->
<g id="edge7" class="edge">
<title>CPI&#45;&gt;CC</title>
<path fill="none" stroke="#444444" d="M327.24,-775.1C359.23,-740.71 408.27,-688 408.27,-688 408.27,-688 434.27,-623 434.27,-623 434.27,-623 434.27,-548.6 434.27,-548.6 434.27,-548.6 430.14,-539.63 424.95,-528.34"/>
<polygon fill="#444444" stroke="#444444" points="427.54,-527.28 421.66,-521.19 422.46,-529.63 427.54,-527.28"/>
</g>
<!-- SCPI -->
<g id="node7" class="node">
<title>SCPI</title>
<path fill="#ececff" stroke="#5c5c99" d="M410.79,-623C410.79,-623 189.75,-623 189.75,-623 183.75,-623 177.75,-617 177.75,-611 177.75,-611 177.75,-560.6 177.75,-560.6 177.75,-554.6 183.75,-548.6 189.75,-548.6 189.75,-548.6 410.79,-548.6 410.79,-548.6 416.79,-548.6 422.79,-554.6 422.79,-560.6 422.79,-560.6 422.79,-611 422.79,-611 422.79,-617 416.79,-623 410.79,-623"/>
<text xml:space="preserve" text-anchor="middle" x="300.27" y="-602.5" font-family="Helvetica,sans-Serif" font-size="14.00">Step 2b &#45; Sequence CPI (SCPI)</text>
<text xml:space="preserve" text-anchor="middle" x="300.27" y="-587.5" font-family="Helvetica,sans-Serif" font-size="14.00">geom&#45;mean over window L</text>
<text xml:space="preserve" text-anchor="middle" x="300.27" y="-572.5" font-family="Helvetica,sans-Serif" font-size="14.00">z_seq = (SCPI &#45; mean) / (std / sqrt L)</text>
<text xml:space="preserve" text-anchor="middle" x="300.27" y="-557.5" font-family="Helvetica,sans-Serif" font-size="14.00">active when buffer &gt;= L</text>
</g>
<!-- BUF&#45;&gt;SCPI -->
<g id="edge6" class="edge">
<title>BUF&#45;&gt;SCPI</title>
<path fill="none" stroke="#444444" d="M300.27,-651.57C300.27,-645.93 300.27,-639.39 300.27,-632.68"/>
<polygon fill="#444444" stroke="#444444" points="303.07,-633 300.27,-625 297.47,-633 303.07,-633"/>
</g>
<!-- SCPI&#45;&gt;CC -->
<g id="edge8" class="edge">
<title>SCPI&#45;&gt;CC</title>
<path fill="none" stroke="#444444" d="M337.82,-548.19C345.03,-541.16 352.65,-533.73 360.06,-526.51"/>
<polygon fill="#444444" stroke="#444444" points="361.92,-528.6 365.7,-521.01 358.01,-524.59 361.92,-528.6"/>
</g>
<!-- RANK -->
<g id="node9" class="node">
<title>RANK</title>
<path fill="#ececff" stroke="#5c5c99" d="M481.79,-416.2C481.79,-416.2 326.75,-416.2 326.75,-416.2 320.75,-416.2 314.75,-410.2 314.75,-404.2 314.75,-404.2 314.75,-392.2 314.75,-392.2 314.75,-386.2 320.75,-380.2 326.75,-380.2 326.75,-380.2 481.79,-380.2 481.79,-380.2 487.79,-380.2 493.79,-386.2 493.79,-392.2 493.79,-392.2 493.79,-404.2 493.79,-404.2 493.79,-410.2 487.79,-416.2 481.79,-416.2"/>
<text xml:space="preserve" text-anchor="middle" x="404.27" y="-392.4" font-family="Helvetica,sans-Serif" font-size="14.00">Step 4 &#45; Rank by |z&#45;score|</text>
</g>
<!-- CC&#45;&gt;RANK -->
<g id="edge9" class="edge">
<title>CC&#45;&gt;RANK</title>
<path fill="none" stroke="#444444" d="M404.27,-445.11C404.27,-438.56 404.27,-431.85 404.27,-425.64"/>
<polygon fill="#444444" stroke="#444444" points="407.07,-425.93 404.27,-417.93 401.47,-425.93 407.07,-425.93"/>
</g>
<!-- AID -->
<g id="node10" class="node">
<title>AID</title>
<path fill="#ececff" stroke="#5c5c99" d="M514.41,-351.2C514.41,-351.2 294.12,-351.2 294.12,-351.2 288.12,-351.2 282.12,-345.2 282.12,-339.2 282.12,-339.2 282.12,-327.2 282.12,-327.2 282.12,-321.2 288.12,-315.2 294.12,-315.2 294.12,-315.2 514.41,-315.2 514.41,-315.2 520.41,-315.2 526.41,-321.2 526.41,-327.2 526.41,-327.2 526.41,-339.2 526.41,-339.2 526.41,-345.2 520.41,-351.2 514.41,-351.2"/>
<text xml:space="preserve" text-anchor="middle" x="404.27" y="-327.4" font-family="Helvetica,sans-Serif" font-size="14.00">Step 5 &#45; Top&#45;3 Anomaly Identification</text>
</g>
<!-- RANK&#45;&gt;AID -->
<g id="edge10" class="edge">
<title>RANK&#45;&gt;AID</title>
<path fill="none" stroke="#444444" d="M404.27,-379.98C404.27,-374.01 404.27,-367.17 404.27,-360.63"/>
<polygon fill="#444444" stroke="#444444" points="407.07,-360.91 404.27,-352.91 401.47,-360.91 407.07,-360.91"/>
</g>
<!-- AM -->
<g id="node11" class="node">
<title>AM</title>
<path fill="#ececff" stroke="#5c5c99" d="M500.91,-286.2C500.91,-286.2 307.62,-286.2 307.62,-286.2 301.62,-286.2 295.62,-280.2 295.62,-274.2 295.62,-274.2 295.62,-253.8 295.62,-253.8 295.62,-247.8 301.62,-241.8 307.62,-241.8 307.62,-241.8 500.91,-241.8 500.91,-241.8 506.91,-241.8 512.91,-247.8 512.91,-253.8 512.91,-253.8 512.91,-274.2 512.91,-274.2 512.91,-280.2 506.91,-286.2 500.91,-286.2"/>
<text xml:space="preserve" text-anchor="middle" x="404.27" y="-265.7" font-family="Helvetica,sans-Serif" font-size="14.00">Account Mapping</text>
<text xml:space="preserve" text-anchor="middle" x="404.27" y="-250.7" font-family="Helvetica,sans-Serif" font-size="14.00">top&#45;3 types &#45;&gt; Chart of Accounts</text>
</g>
<!-- AID&#45;&gt;AM -->
<g id="edge11" class="edge">
<title>AID&#45;&gt;AM</title>
<path fill="none" stroke="#444444" d="M404.27,-314.89C404.27,-309.04 404.27,-302.32 404.27,-295.74"/>
<polygon fill="#444444" stroke="#444444" points="407.07,-295.85 404.27,-287.85 401.47,-295.85 407.07,-295.85"/>
</g>
<!-- LLM -->
<g id="node12" class="node">
<title>LLM</title>
<path fill="#ececff" stroke="#5c5c99" d="M363.16,-212.8C363.16,-212.8 189.38,-212.8 189.38,-212.8 183.38,-212.8 177.38,-206.8 177.38,-200.8 177.38,-200.8 177.38,-165.4 177.38,-165.4 177.38,-159.4 183.38,-153.4 189.38,-153.4 189.38,-153.4 363.16,-153.4 363.16,-153.4 369.16,-153.4 375.16,-159.4 375.16,-165.4 375.16,-165.4 375.16,-200.8 375.16,-200.8 375.16,-206.8 369.16,-212.8 363.16,-212.8"/>
<text xml:space="preserve" text-anchor="middle" x="276.27" y="-192.3" font-family="Helvetica,sans-Serif" font-size="14.00">Step 6 &#45; LLM Analysis (RAG)</text>
<text xml:space="preserve" text-anchor="middle" x="276.27" y="-177.3" font-family="Helvetica,sans-Serif" font-size="14.00">Ollama llama3.1:8b +</text>
<text xml:space="preserve" text-anchor="middle" x="276.27" y="-162.3" font-family="Helvetica,sans-Serif" font-size="14.00">Asset_Misappropriation.ttl</text>
</g>
<!-- AM&#45;&gt;LLM -->
<g id="edge12" class="edge">
<title>AM&#45;&gt;LLM</title>
<path fill="none" stroke="#444444" d="M369.29,-241.44C357.52,-234.19 344.09,-225.91 331.17,-217.94"/>
<polygon fill="#444444" stroke="#444444" points="332.77,-215.64 324.49,-213.83 329.84,-220.41 332.77,-215.64"/>
</g>
<!-- MAP -->
<g id="node13" class="node">
<title>MAP</title>
<path fill="#ececff" stroke="#5c5c99" d="M567.29,-212.8C567.29,-212.8 409.25,-212.8 409.25,-212.8 403.25,-212.8 397.25,-206.8 397.25,-200.8 397.25,-200.8 397.25,-165.4 397.25,-165.4 397.25,-159.4 403.25,-153.4 409.25,-153.4 409.25,-153.4 567.29,-153.4 567.29,-153.4 573.29,-153.4 579.29,-159.4 579.29,-165.4 579.29,-165.4 579.29,-200.8 579.29,-200.8 579.29,-206.8 573.29,-212.8 567.29,-212.8"/>
<text xml:space="preserve" text-anchor="middle" x="488.27" y="-192.3" font-family="Helvetica,sans-Serif" font-size="14.00">Deterministic anchor</text>
<text xml:space="preserve" text-anchor="middle" x="488.27" y="-177.3" font-family="Helvetica,sans-Serif" font-size="14.00">ACFE scheme priors</text>
<text xml:space="preserve" text-anchor="middle" x="488.27" y="-162.3" font-family="Helvetica,sans-Serif" font-size="14.00">(reproducible cross&#45;check)</text>
</g>
<!-- AM&#45;&gt;MAP -->
<g id="edge13" class="edge">
<title>AM&#45;&gt;MAP</title>
<path fill="none" stroke="#444444" d="M427.22,-241.44C434.51,-234.6 442.77,-226.84 450.8,-219.3"/>
<polygon fill="#444444" stroke="#444444" points="452.45,-221.59 456.37,-214.07 448.62,-217.5 452.45,-221.59"/>
</g>
<!-- LLM&#45;&gt;MW -->
<g id="edge14" class="edge">
<title>LLM&#45;&gt;MW</title>
<path fill="none" stroke="#444444" d="M276.27,-153.33C276.27,-147.13 276.27,-140.48 276.27,-133.98"/>
<polygon fill="#444444" stroke="#444444" points="279.07,-134.15 276.27,-126.15 273.47,-134.15 279.07,-134.15"/>
</g>
<!-- MAP&#45;&gt;MW -->
<g id="edge15" class="edge">
<title>MAP&#45;&gt;MW</title>
<path fill="none" stroke="#444444" d="M416.79,-152.97C397.42,-145.07 376.32,-136.48 356.5,-128.4"/>
<polygon fill="#444444" stroke="#444444" points="357.66,-125.85 349.2,-125.42 355.55,-131.03 357.66,-125.85"/>
</g>
<!-- FRP -->
<g id="node15" class="node">
<title>FRP</title>
<path fill="#fff3cd" stroke="#c9a227" d="M291.27,-36C291.27,-36 261.27,-36 261.27,-36 255.27,-36 249.27,-30 249.27,-24 249.27,-24 249.27,-12 249.27,-12 249.27,-6 255.27,0 261.27,0 261.27,0 291.27,0 291.27,0 297.27,0 303.27,-6 303.27,-12 303.27,-12 303.27,-24 303.27,-24 303.27,-30 297.27,-36 291.27,-36"/>
<text xml:space="preserve" text-anchor="middle" x="276.27" y="-12.2" font-family="Helvetica,sans-Serif" font-size="14.00">FRP</text>
</g>
<!-- MW&#45;&gt;FRP -->
<g id="edge17" class="edge">
<title>MW&#45;&gt;FRP</title>
<path fill="none" stroke="#444444" d="M276.27,-64.61C276.27,-58.37 276.27,-51.81 276.27,-45.67"/>
<polygon fill="#444444" stroke="#444444" points="279.07,-45.99 276.27,-37.99 273.47,-45.99 279.07,-45.99"/>
</g>
</g>
</svg>
