<?xml version="1.0" encoding="UTF-8" standalone="no"?>
<!DOCTYPE svg PUBLIC "-//W3C//DTD SVG 1.1//EN"
 "http://www.w3.org/Graphics/SVG/1.1/DTD/svg11.dtd">
<!-- Generated by graphviz version 15.0.0 (20260523.1842)
 -->
<!-- Title: NGAME_Fig6 Pages: 1 -->
<svg width="358pt" height="631pt"
 viewBox="0.00 0.00 358.00 631.00" xmlns="http://www.w3.org/2000/svg" xmlns:xlink="http://www.w3.org/1999/xlink">
<g id="graph0" class="graph" transform="scale(1 1) rotate(0) translate(10.8 620.1)">
<title>NGAME_Fig6</title>
<polygon fill="white" stroke="none" points="-10.8,10.8 -10.8,-620.1 347.35,-620.1 347.35,10.8 -10.8,10.8"/>
<g id="clust1" class="cluster">
<title>cluster_perday</title>
<path fill="#eef6ee" stroke="#9cc79c" d="M46.77,-173.8C46.77,-173.8 300.77,-173.8 300.77,-173.8 306.77,-173.8 312.77,-179.8 312.77,-185.8 312.77,-185.8 312.77,-528.9 312.77,-528.9 312.77,-534.9 306.77,-540.9 300.77,-540.9 300.77,-540.9 46.77,-540.9 46.77,-540.9 40.77,-540.9 34.77,-534.9 34.77,-528.9 34.77,-528.9 34.77,-185.8 34.77,-185.8 34.77,-179.8 40.77,-173.8 46.77,-173.8"/>
<text xml:space="preserve" text-anchor="middle" x="173.77" y="-522.65" font-family="Helvetica,sans-Serif" font-weight="bold" font-size="15.00">Repeat each training day &#160;d = 1 .. N</text>
</g>
<!-- START -->
<g id="node1" class="node">
<title>START</title>
<path fill="#fff3cd" stroke="#c9a227" d="M280.79,-609.3C280.79,-609.3 44.75,-609.3 44.75,-609.3 38.75,-609.3 32.75,-603.3 32.75,-597.3 32.75,-597.3 32.75,-576.9 32.75,-576.9 32.75,-570.9 38.75,-564.9 44.75,-564.9 44.75,-564.9 280.79,-564.9 280.79,-564.9 286.79,-564.9 292.79,-570.9 292.79,-576.9 292.79,-576.9 292.79,-597.3 292.79,-597.3 292.79,-603.3 286.79,-609.3 280.79,-609.3"/>
<text xml:space="preserve" text-anchor="middle" x="162.77" y="-588.8" font-family="Helvetica,sans-Serif" font-size="14.00">Start training run</text>
<text xml:space="preserve" text-anchor="middle" x="162.77" y="-573.8" font-family="Helvetica,sans-Serif" font-size="14.00">N workdays (set by NPO management)</text>
</g>
<!-- EXT -->
<g id="node2" class="node">
<title>EXT</title>
<path fill="#ececff" stroke="#5c5c99" d="M235.04,-509.15C235.04,-509.15 90.5,-509.15 90.5,-509.15 84.5,-509.15 78.5,-503.15 78.5,-497.15 78.5,-497.15 78.5,-461.75 78.5,-461.75 78.5,-455.75 84.5,-449.75 90.5,-449.75 90.5,-449.75 235.04,-449.75 235.04,-449.75 241.04,-449.75 247.04,-455.75 247.04,-461.75 247.04,-461.75 247.04,-497.15 247.04,-497.15 247.04,-503.15 241.04,-509.15 235.04,-509.15"/>
<text xml:space="preserve" text-anchor="middle" x="162.77" y="-488.65" font-family="Helvetica,sans-Serif" font-size="14.00">Data Extraction Agent</text>
<text xml:space="preserve" text-anchor="middle" x="162.77" y="-473.65" font-family="Helvetica,sans-Serif" font-size="14.00">pull QBO, write Today.ttl</text>
<text xml:space="preserve" text-anchor="middle" x="162.77" y="-458.65" font-family="Helvetica,sans-Serif" font-size="14.00">(18 transaction types)</text>
</g>
<!-- START&#45;&gt;EXT -->
<g id="edge5" class="edge">
<title>START&#45;&gt;EXT</title>
<path fill="none" stroke="#444444" d="M162.77,-564.47C162.77,-551.27 162.77,-534.02 162.77,-518.59"/>
<polygon fill="#444444" stroke="#444444" points="165.57,-518.78 162.77,-510.78 159.97,-518.78 165.57,-518.78"/>
</g>
<!-- SHIFT -->
<g id="node3" class="node">
<title>SHIFT</title>
<path fill="#ececff" stroke="#5c5c99" d="M270.29,-418.75C270.29,-418.75 55.25,-418.75 55.25,-418.75 49.25,-418.75 43.25,-412.75 43.25,-406.75 43.25,-406.75 43.25,-386.35 43.25,-386.35 43.25,-380.35 49.25,-374.35 55.25,-374.35 55.25,-374.35 270.29,-374.35 270.29,-374.35 276.29,-374.35 282.29,-380.35 282.29,-386.35 282.29,-386.35 282.29,-406.75 282.29,-406.75 282.29,-412.75 276.29,-418.75 270.29,-418.75"/>
<text xml:space="preserve" text-anchor="middle" x="162.77" y="-398.25" font-family="Helvetica,sans-Serif" font-size="14.00">Rotate prior Today.ttl to Yesterday.ttl</text>
<text xml:space="preserve" text-anchor="middle" x="162.77" y="-383.25" font-family="Helvetica,sans-Serif" font-size="14.00">(day 1 establishes Yesterday only)</text>
</g>
<!-- EXT&#45;&gt;SHIFT -->
<g id="edge1" class="edge">
<title>EXT&#45;&gt;SHIFT</title>
<path fill="none" stroke="#444444" d="M162.77,-449.7C162.77,-442.77 162.77,-435.34 162.77,-428.32"/>
<polygon fill="#444444" stroke="#444444" points="165.57,-428.6 162.77,-420.6 159.97,-428.6 165.57,-428.6"/>
</g>
<!-- CPID -->
<g id="node4" class="node">
<title>CPID</title>
<path fill="#ececff" stroke="#5c5c99" d="M261.67,-331.6C261.67,-331.6 69.88,-331.6 69.88,-331.6 63.88,-331.6 57.88,-325.6 57.88,-319.6 57.88,-319.6 57.88,-269.2 57.88,-269.2 57.88,-263.2 63.88,-257.2 69.88,-257.2 69.88,-257.2 261.67,-257.2 261.67,-257.2 267.67,-257.2 273.67,-263.2 273.67,-269.2 273.67,-269.2 273.67,-319.6 273.67,-319.6 273.67,-325.6 267.67,-331.6 261.67,-331.6"/>
<text xml:space="preserve" text-anchor="middle" x="165.77" y="-311.1" font-family="Helvetica,sans-Serif" font-size="14.00">CPI Analysis Agent (from day 2)</text>
<text xml:space="preserve" text-anchor="middle" x="165.77" y="-296.1" font-family="Helvetica,sans-Serif" font-size="14.00">Jaccard persistence per type</text>
<text xml:space="preserve" text-anchor="middle" x="165.77" y="-281.1" font-family="Helvetica,sans-Serif" font-size="14.00">CPI = |Y and T| / |Y or T|</text>
<text xml:space="preserve" text-anchor="middle" x="165.77" y="-266.1" font-family="Helvetica,sans-Serif" font-size="14.00">+ dollar&#45;weighted wCPI</text>
</g>
<!-- SHIFT&#45;&gt;CPID -->
<g id="edge2" class="edge">
<title>SHIFT&#45;&gt;CPID</title>
<path fill="none" stroke="#444444" d="M163.41,-374.31C163.7,-364.62 164.05,-352.73 164.4,-341.16"/>
<polygon fill="#444444" stroke="#444444" points="167.19,-341.58 164.63,-333.5 161.59,-341.42 167.19,-341.58"/>
</g>
<!-- COL -->
<g id="node5" class="node">
<title>COL</title>
<path fill="#ececff" stroke="#5c5c99" d="M278.42,-226.2C278.42,-226.2 55.13,-226.2 55.13,-226.2 49.12,-226.2 43.13,-220.2 43.13,-214.2 43.13,-214.2 43.13,-193.8 43.13,-193.8 43.13,-187.8 49.13,-181.8 55.13,-181.8 55.13,-181.8 278.42,-181.8 278.42,-181.8 284.42,-181.8 290.42,-187.8 290.42,-193.8 290.42,-193.8 290.42,-214.2 290.42,-214.2 290.42,-220.2 284.42,-226.2 278.42,-226.2"/>
<text xml:space="preserve" text-anchor="middle" x="166.77" y="-205.7" font-family="Helvetica,sans-Serif" font-size="14.00">Matrix Management Agent</text>
<text xml:space="preserve" text-anchor="middle" x="166.77" y="-190.7" font-family="Helvetica,sans-Serif" font-size="14.00">append day column &#160;&#45;&gt; &#160;18 x d matrix</text>
</g>
<!-- CPID&#45;&gt;COL -->
<g id="edge3" class="edge">
<title>CPID&#45;&gt;COL</title>
<path fill="none" stroke="#444444" d="M166.18,-256.93C166.26,-249.81 166.35,-242.4 166.43,-235.49"/>
<polygon fill="#444444" stroke="#444444" points="169.22,-235.99 166.51,-227.96 163.62,-235.93 169.22,-235.99"/>
</g>
<!-- COL&#45;&gt;EXT -->
<g id="edge4" class="edge">
<title>COL&#45;&gt;EXT</title>
<path fill="none" stroke="#444444" stroke-dasharray="5,2" d="M215.37,-226.68C247.52,-241.03 283.77,-257.2 283.77,-257.2 283.77,-257.2 292.77,-374.35 292.77,-374.35 292.77,-374.35 292.77,-418.75 292.77,-418.75 292.77,-418.75 264.76,-431.61 234.74,-445.4"/>
<polygon fill="#444444" stroke="#444444" points="233.72,-442.78 227.62,-448.67 236.06,-447.87 233.72,-442.78"/>
<text xml:space="preserve" text-anchor="middle" x="314.05" y="-347.95" font-family="Helvetica,sans-Serif" font-size="12.00">next day</text>
</g>
<!-- AGG -->
<g id="node6" class="node">
<title>AGG</title>
<path fill="#ececff" stroke="#5c5c99" d="M287.42,-149.8C287.42,-149.8 46.12,-149.8 46.12,-149.8 40.12,-149.8 34.12,-143.8 34.12,-137.8 34.12,-137.8 34.12,-102.4 34.12,-102.4 34.12,-96.4 40.12,-90.4 46.12,-90.4 46.12,-90.4 287.42,-90.4 287.42,-90.4 293.42,-90.4 299.42,-96.4 299.42,-102.4 299.42,-102.4 299.42,-137.8 299.42,-137.8 299.42,-143.8 293.42,-149.8 287.42,-149.8"/>
<text xml:space="preserve" text-anchor="middle" x="166.77" y="-129.3" font-family="Helvetica,sans-Serif" font-size="14.00">After N days &#45; derive per&#45;type baseline</text>
<text xml:space="preserve" text-anchor="middle" x="166.77" y="-114.3" font-family="Helvetica,sans-Serif" font-size="14.00">mean (col B), std (col C)</text>
<text xml:space="preserve" text-anchor="middle" x="166.77" y="-99.3" font-family="Helvetica,sans-Serif" font-size="14.00">+ wCPI baseline sheet (mean_w, std_w)</text>
</g>
<!-- COL&#45;&gt;AGG -->
<g id="edge6" class="edge">
<title>COL&#45;&gt;AGG</title>
<path fill="none" stroke="#444444" d="M166.77,-181.48C166.77,-174.75 166.77,-167.11 166.77,-159.58"/>
<polygon fill="#444444" stroke="#444444" points="169.57,-159.69 166.77,-151.69 163.97,-159.69 169.57,-159.69"/>
</g>
<!-- OUT -->
<g id="node7" class="node">
<title>OUT</title>
<path fill="#fff3cd" stroke="#c9a227" d="M321.54,-59.4C321.54,-59.4 12,-59.4 12,-59.4 6,-59.4 0,-53.4 0,-47.4 0,-47.4 0,-12 0,-12 0,-6 6,0 12,0 12,0 321.54,0 321.54,0 327.54,0 333.54,-6 333.54,-12 333.54,-12 333.54,-47.4 333.54,-47.4 333.54,-53.4 327.54,-59.4 321.54,-59.4"/>
<text xml:space="preserve" text-anchor="middle" x="166.77" y="-38.9" font-family="Helvetica,sans-Serif" font-size="14.00">Trained Baseline</text>
<text xml:space="preserve" text-anchor="middle" x="166.77" y="-23.9" font-family="Helvetica,sans-Serif" font-size="14.00">NGAME_Training_Matrix.xlsx</text>
<text xml:space="preserve" text-anchor="middle" x="166.77" y="-8.9" font-family="Helvetica,sans-Serif" font-size="14.00">(persists until activity or Chart of Accounts changes)</text>
</g>
<!-- AGG&#45;&gt;OUT -->
<g id="edge7" class="edge">
<title>AGG&#45;&gt;OUT</title>
<path fill="none" stroke="#444444" d="M166.77,-90.15C166.77,-83.44 166.77,-76.19 166.77,-69.13"/>
<polygon fill="#444444" stroke="#444444" points="169.57,-69.22 166.77,-61.22 163.97,-69.22 169.57,-69.22"/>
</g>
</g>
</svg>
